<?xml version="1.0" encoding="utf-8"?>
<!-- Generator: Adobe Illustrator 18.1.1, SVG Export Plug-In . SVG Version: 6.00 Build 0)  -->
<svg version="1.1" id="圖層_1" xmlns="http://www.w3.org/2000/svg" xmlns:xlink="http://www.w3.org/1999/xlink" x="0px" y="0px"
	 viewBox="0 0 50 50" enable-background="new 0 0 50 50" xml:space="preserve">
<path d="M47.4,16.4c0-0.1-0.1-0.1-0.1-0.2c0,0,0,0,0,0L25.4,1c0,0-0.1,0-0.1,0c0,0,0,0-0.1,0c-0.2-0.1-0.3-0.1-0.5,0c0,0,0,0-0.1,0
	c0,0-0.1,0-0.1,0L2.8,16.2c0,0,0,0,0,0c-0.1,0-0.1,0.1-0.1,0.2c0,0,0,0-0.1,0.1c0,0.1-0.1,0.2-0.1,0.3v16.4c0,0.1,0,0.2,0.1,0.3
	c0,0,0,0,0.1,0.1c0,0.1,0.1,0.1,0.1,0.2c0,0,0,0,0,0L24.6,49c0,0,0.1,0,0.1,0c0,0,0,0,0.1,0c0.1,0,0.2,0,0.2,0c0.1,0,0.2,0,0.2,0
	c0,0,0,0,0.1,0c0,0,0.1,0,0.1,0l21.8-15.2c0,0,0,0,0,0c0.1,0,0.1-0.1,0.1-0.2c0,0,0,0,0.1-0.1c0-0.1,0.1-0.2,0.1-0.3V16.8
	C47.5,16.7,47.5,16.6,47.4,16.4C47.4,16.5,47.4,16.5,47.4,16.4z M25.7,2.9l19.9,13.9l-10.5,7.3l-9.4-6.5V2.9z M24.3,2.9v14.7
	l-9.4,6.5L4.4,16.8L24.3,2.9z M3.9,18.2l9.8,6.8l-9.8,6.8V18.2z M24.3,47.1L4.4,33.2l10.5-7.3l9.4,6.5V47.1z M25,31.2L16.2,25
	l8.8-6.2l8.8,6.2L25,31.2z M25.7,47.1V32.4l9.4-6.5l10.5,7.3L25.7,47.1z M46.1,31.8L36.3,25l9.8-6.8V31.8z"/>
</svg>
