<?xml version="1.0" encoding="utf-8"?>
<!-- Generator: Adobe Illustrator 18.1.1, SVG Export Plug-In . SVG Version: 6.00 Build 0)  -->
<svg version="1.1" id="圖層_1" xmlns="http://www.w3.org/2000/svg" xmlns:xlink="http://www.w3.org/1999/xlink" x="0px" y="0px"
	 viewBox="0 0 50 50" enable-background="new 0 0 50 50" xml:space="preserve">
<path d="M47.9,8.9H2.1C1,8.9,0,9.9,0,11v28c0,1.1,0.9,2.1,2.1,2.1h45.8c1.1,0,2.1-0.9,2.1-2.1V11C50,9.9,49,8.9,47.9,8.9z M2.1,10.6
	h45.8c0.2,0,0.4,0.1,0.4,0.3L25,25.4L1.7,10.9C1.7,10.7,1.9,10.6,2.1,10.6z M1.7,12.7l16.8,10.5L1.7,36.5V12.7z M48.3,39
	c0,0.2-0.2,0.4-0.4,0.4H2.1c-0.2,0-0.4-0.2-0.4-0.4v-0.4l18.2-14.4l4.7,2.9c0.3,0.2,0.6,0.2,0.9,0l4.7-2.9l18.2,14.4V39z M48.3,36.5
	L31.5,23.2l16.8-10.4V36.5z"/>
</svg>
