<?xml version="1.0" encoding="utf-8"?>
<!-- Generator: Adobe Illustrator 18.1.1, SVG Export Plug-In . SVG Version: 6.00 Build 0)  -->
<svg version="1.1" id="圖層_1" xmlns="http://www.w3.org/2000/svg" xmlns:xlink="http://www.w3.org/1999/xlink" x="0px" y="0px"
	 viewBox="0 0 50 50" enable-background="new 0 0 50 50" xml:space="preserve">
<path d="M40.9,47.9L40.9,47.9c-2,0-4.3-0.5-6.9-1.5c-5.8-2.2-12-6.5-17.7-12.1c-5.6-5.6-10-11.9-12.1-17.7C2.4,11.7,2.3,7.6,4,5.8
	c0.3-0.3,0.6-0.6,0.9-0.9c1.7-1.8,3.6-3.7,5.8-3.7h0.1c1.6,0.1,3.3,1.2,5,3.3c4.8,6,3.3,8,0.2,11L15.5,16c-1.7,1.7,0.6,5.9,7,12.2
	c2.8,2.8,5.1,4.8,7,6c2.4,1.6,4.2,1.9,5.2,0.9l0.5-0.5c1.5-1.5,2.8-2.8,4.8-2.8c1.7,0,3.6,0.9,6.2,3.1c2.1,1.7,3.2,3.4,3.3,5
	c0.1,2.3-1.9,4.3-3.7,6c-0.3,0.3-0.6,0.6-0.9,0.9C44,47.5,42.7,47.9,40.9,47.9z M10.8,2.7L10.8,2.7C9.1,2.7,7.5,4.4,6,5.9
	c-0.3,0.4-0.6,0.7-0.9,1c-1,1-1.3,4.3,0.5,9.2c2.1,5.6,6.3,11.7,11.8,17.2C22.9,38.8,29,42.9,34.6,45c4.1,1.6,8,1.8,9.2,0.6
	c0.3-0.3,0.6-0.6,1-0.9c1.6-1.5,3.3-3.2,3.3-4.8c0-1.1-1-2.5-2.7-3.8c-2.3-1.9-4-2.7-5.3-2.7c-1.3,0-2.3,1-3.7,2.4l-0.5,0.5
	c-1.5,1.5-3.9,1.3-7.1-0.7c-2-1.3-4.4-3.4-7.3-6.2c-7.4-7.4-9.5-11.8-6.9-14.3l0.5-0.5c2.6-2.6,3.8-3.8-0.3-9
	C13.3,3.7,12,2.7,10.8,2.7z"/>
</svg>
