<?xml version="1.0" encoding="utf-8"?>
<!-- Generator: Adobe Illustrator 18.1.1, SVG Export Plug-In . SVG Version: 6.00 Build 0)  -->
<svg version="1.1" id="圖層_1" xmlns="http://www.w3.org/2000/svg" xmlns:xlink="http://www.w3.org/1999/xlink" x="0px" y="0px"
	 viewBox="0 0 350 150" enable-background="new 0 0 350 150" xml:space="preserve">
<symbol  id="testpink" viewBox="-175 -75 350 150">
	<path fill="#F29C9F" d="M175,75h-350c5.8-0.8,12-1.4,13.3-1.6c24.9-4.7,50.5-8.2,73.7-18.6c26.1-11.7,47.6-31.2,65.8-53.2
		c15.7-19.1,30.5-40.2,51-54.4C58.6-73.5,96.5-79,131.4-72.3c16,3.1,29.4,10.4,43.6,16.6V75z"/>
	<polygon display="none" fill="none" points="-175,75 175,75 175,-74 -175,-74 	"/>
</symbol>
<use xlink:href="#testpink"  width="350" height="150" x="-175" y="-75" transform="matrix(1 0 0 -1 174.9156 75)" overflow="visible"/>
</svg>
