<?xml version="1.0" encoding="utf-8"?>
<!-- Generator: Adobe Illustrator 18.1.1, SVG Export Plug-In . SVG Version: 6.00 Build 0)  -->
<svg version="1.1" id="圖層_1" xmlns="http://www.w3.org/2000/svg" xmlns:xlink="http://www.w3.org/1999/xlink" x="0px" y="0px"
	 viewBox="0 0 320 300" enable-background="new 0 0 320 300" xml:space="preserve">
<g>
	<path fill="#323232" d="M18.2,61.3v-7.7c3.4,1.9,6.6,2.9,9.7,2.9c1.9,0,3.2-0.5,4.1-1.6c0.8-1.1,1.3-2.7,1.3-5V20.7h7.8v29.2
		c0,4.9-1.2,8.5-3.5,10.9c-2.1,2.1-5,3.2-8.6,3.2S21.7,63.1,18.2,61.3z"/>
	<path fill="#323232" d="M76.6,57.4c-2,4.2-5.2,6.3-9.7,6.3c-5.6,0-9.3-2.2-11.1-6.6c-0.7-1.5-1-3.4-1-5.6V31.3h7.7v19.5
		c0,2.1,0.5,3.6,1.5,4.7c1,1,2.2,1.5,3.7,1.5c1.5,0,2.7-0.2,3.7-0.6c1-0.4,1.9-1,2.6-1.9c1.6-1.9,2.5-4.4,2.5-7.5V31.3h7.7v31.8
		h-7.7V57.4z"/>
	<path fill="#323232" d="M99.7,18.3h7.7v44.8h-7.7V18.3z"/>
	<path fill="#323232" d="M122.6,21.1c0-1.4,0.4-2.5,1.2-3.3c0.8-0.8,2-1.2,3.5-1.2c1.5,0,2.6,0.4,3.5,1.2c0.8,0.8,1.3,1.9,1.3,3.3
		c0,1.4-0.4,2.5-1.3,3.3c-0.8,0.8-2,1.2-3.5,1.2c-1.5,0-2.7-0.4-3.5-1.2C123,23.6,122.6,22.5,122.6,21.1z M123.5,31.3h7.7v31.8h-7.7
		V31.3z"/>
	<path fill="#323232" d="M172.1,40c0.5,1.8,0.8,3.5,0.8,5c0,1.5-0.1,2.9-0.3,4.1h-20.5c0.1,2.6,0.7,4.7,1.9,6.3
		c1.2,1.6,3,2.4,5.4,2.4c3.2,0,5.1-1.4,5.7-4.2h7.8c-0.5,3.2-2,5.7-4.4,7.5c-2.5,1.9-5.5,2.9-9.1,2.9c-4.2,0-7.7-1.5-10.5-4.6
		c-2.9-3.2-4.4-7.2-4.4-12.2c0-5.1,1.5-9.2,4.4-12.3c2.8-3,6.3-4.4,10.5-4.4c4.4,0,7.8,1.5,10.3,4.6C170.8,36.5,171.6,38.2,172.1,40
		z M159.5,36.6c-2.2,0-3.9,0.7-5.1,2.1c-1.2,1.4-1.9,3.2-2.2,5.5h13.5c0-3.4-1.1-5.7-3.3-6.9C161.7,36.9,160.7,36.6,159.5,36.6z"/>
	<path fill="#323232" d="M209,20.7l9.3,32.2l9.1-29.4h5.2l9.6,29.5l9.9-32.3h8.7l-14.6,42.4h-8.1l-8-23.9l-7.9,23.9h-8.1l-13.8-42.4
		H209z"/>
	<path fill="#323232" d="M292.6,57.4c-2,4.2-5.2,6.3-9.7,6.3c-5.6,0-9.3-2.2-11.1-6.6c-0.7-1.5-1-3.4-1-5.6V31.3h7.7v19.5
		c0,2.1,0.5,3.6,1.5,4.7c1,1,2.2,1.5,3.7,1.5s2.7-0.2,3.7-0.6c1-0.4,1.9-1,2.6-1.9c1.6-1.9,2.5-4.4,2.5-7.5V31.3h7.7v31.8h-7.7V57.4
		z"/>
	<path fill="#323232" d="M49.2,107.7c2.7,2.3,4,5.7,4,10c0,4.3-1.3,7.7-4,10c-2.7,2.3-6.4,3.5-11.2,3.5h-7.2v15.4h-7.8v-42.4h15
		C42.8,104.2,46.5,105.3,49.2,107.7z M38,124.4c2.4,0,4.2-0.6,5.4-1.9c1.2-1.3,1.8-2.9,1.8-4.9c0-2-0.6-3.6-1.8-4.9
		c-1.2-1.3-3-1.9-5.4-1.9h-7.2v13.6H38z"/>
	<path fill="#323232" d="M76.3,114c2.1,0,4.1,0.3,6,1c1.9,0.7,3.5,1.7,4.8,3.1c3,3,4.5,7.3,4.5,12.7c0,5.3-1.5,9.5-4.5,12.5
		c-2.7,2.8-6.3,4.2-10.8,4.2c-4.5,0-8.2-1.4-11-4.2c-3-3-4.5-7.2-4.5-12.5c0-5.4,1.5-9.7,4.5-12.7C68.1,115.3,71.7,114,76.3,114z
		 M83.9,130.7c0-3.4-0.7-5.9-2-7.5c-1.3-1.7-3.1-2.5-5.5-2.5c-2.3,0-4.2,0.8-5.7,2.5c-1.5,1.7-2.2,4.2-2.2,7.5c0,3.4,0.7,5.9,2,7.5
		c1.3,1.7,3.1,2.5,5.5,2.5c2.3,0,4.2-0.8,5.7-2.5C83.2,136.5,83.9,134,83.9,130.7z"/>
	<path fill="#323232" d="M111.1,121.1c1.9-4.6,4.8-6.9,8.6-6.9c0.7,0,1.7,0.2,2.8,0.5l-0.1,7.7c-1.2-0.3-2.4-0.4-3.6-0.4
		c-5.1,0-7.7,3.5-7.7,10.6v13.9h-7.7v-31.8h7.7V121.1z"/>
	<path fill="#323232" d="M151.1,145.8c-2.9,1.1-5.1,1.7-6.8,1.7c-1.7,0-3.1-0.2-4.3-0.6c-1.2-0.4-2.3-1-3.3-1.8c-2-1.8-3-4.2-3-7.4
		V120h-4.4v-5.2h4.4v-8.4h7.7v8.4h8.6v5.2h-8.6v17.5c0,2.6,1.2,3.9,3.7,3.9c1.3,0,2.9-0.3,4.9-1L151.1,145.8z"/>
	<path fill="#323232" d="M158.1,114.8h4.7v-3.7c0-3.3,1-5.8,2.9-7.5c1.7-1.6,4-2.4,6.8-2.4c1.8,0,4,0.3,6.6,0.8l-1.5,5.9
		c-1.2-0.4-2.3-0.7-3.3-0.7s-1.8,0.3-2.6,0.8c-0.7,0.5-1.1,1.6-1.1,3v3.7h5.8v5.2h-5.8v26.6h-7.8V120h-4.7V114.8z"/>
	<path fill="#323232" d="M200.6,114c2.1,0,4.1,0.3,6,1c1.9,0.7,3.5,1.7,4.8,3.1c3,3,4.5,7.3,4.5,12.7c0,5.3-1.5,9.5-4.5,12.5
		c-2.7,2.8-6.3,4.2-10.8,4.2s-8.2-1.4-11-4.2c-3-3-4.5-7.2-4.5-12.5c0-5.4,1.5-9.7,4.5-12.7C192.3,115.3,196,114,200.6,114z
		 M208.2,130.7c0-3.4-0.7-5.9-2-7.5c-1.3-1.7-3.1-2.5-5.5-2.5c-2.3,0-4.2,0.8-5.7,2.5c-1.5,1.7-2.2,4.2-2.2,7.5c0,3.4,0.7,5.9,2,7.5
		c1.3,1.7,3.1,2.5,5.5,2.5c2.3,0,4.2-0.8,5.7-2.5C207.5,136.5,208.2,134,208.2,130.7z"/>
	<path fill="#323232" d="M227.7,101.7h7.7v44.8h-7.7V101.7z"/>
	<path fill="#323232" d="M249.9,104.6c0-1.4,0.4-2.5,1.2-3.3c0.8-0.8,2-1.2,3.5-1.2c1.5,0,2.6,0.4,3.5,1.2c0.8,0.8,1.3,1.9,1.3,3.3
		c0,1.4-0.4,2.5-1.3,3.3c-0.8,0.8-2,1.2-3.5,1.2c-1.5,0-2.7-0.4-3.5-1.2C250.3,107,249.9,105.9,249.9,104.6z M250.8,114.7h7.7v31.8
		h-7.7V114.7z"/>
	<path fill="#323232" d="M286.6,114c2.1,0,4.1,0.3,6,1c1.9,0.7,3.5,1.7,4.8,3.1c3,3,4.5,7.3,4.5,12.7c0,5.3-1.5,9.5-4.5,12.5
		c-2.7,2.8-6.3,4.2-10.8,4.2s-8.2-1.4-11-4.2c-3-3-4.5-7.2-4.5-12.5c0-5.4,1.5-9.7,4.5-12.7C278.4,115.3,282.1,114,286.6,114z
		 M294.3,130.7c0-3.4-0.7-5.9-2-7.5c-1.3-1.7-3.1-2.5-5.5-2.5c-2.3,0-4.2,0.8-5.7,2.5c-1.5,1.7-2.2,4.2-2.2,7.5c0,3.4,0.7,5.9,2,7.5
		c1.3,1.7,3.1,2.5,5.5,2.5c2.3,0,4.2-0.8,5.7-2.5C293.5,136.5,294.3,134,294.3,130.7z"/>
	<path fill="#323232" d="M37,187.6c6.4,0,11.6,1.9,15.6,5.7c4,3.8,6,9,6,15.5c0,6.4-2,11.6-6,15.4c-4,3.8-9.2,5.7-15.6,5.7H23.2
		v-42.4H37z M31,223h6c4,0,7.2-1.3,9.7-4c2.4-2.6,3.5-6,3.5-10.1c0-4.2-1.2-7.6-3.5-10.3c-2.4-2.7-5.7-4-9.7-4h-6V223z"/>
	<path fill="#323232" d="M95.9,206.9c0.5,1.8,0.8,3.5,0.8,5c0,1.5-0.1,2.9-0.3,4.1H76c0.1,2.6,0.7,4.7,1.9,6.3
		c1.2,1.6,3,2.4,5.4,2.4c3.2,0,5.1-1.4,5.7-4.2h7.8c-0.5,3.2-2,5.7-4.4,7.5c-2.5,1.9-5.5,2.9-9.1,2.9c-4.2,0-7.7-1.5-10.5-4.6
		c-2.9-3.2-4.4-7.2-4.4-12.2c0-5.1,1.5-9.2,4.4-12.3c2.8-3,6.3-4.4,10.5-4.4c4.4,0,7.8,1.5,10.3,4.6C94.5,203.4,95.4,205,95.9,206.9
		z M83.3,203.5c-2.2,0-3.9,0.7-5.1,2.1c-1.2,1.4-1.9,3.2-2.2,5.5h13.5c0-3.4-1.1-5.7-3.3-6.9C85.4,203.8,84.4,203.5,83.3,203.5z"/>
	<path fill="#323232" d="M113.5,220.3c0.1,3,2.3,4.5,6.6,4.5c1.7,0,3-0.4,4.1-1.1c1.1-0.7,1.6-1.6,1.6-2.5c0-1-0.3-1.7-1-2.2
		c-0.7-0.5-1.7-1-3.1-1.4l-6.9-2.5c-5.1-1.8-7.7-4.7-7.7-8.8c0-2.7,1.2-4.9,3.6-6.5s5.7-2.4,9.7-2.4c4.1,0,7.2,0.9,9.4,2.7
		c2.2,1.8,3.3,4,3.4,6.7H126c-0.1-1-0.6-1.9-1.5-2.5c-0.9-0.6-2.2-0.9-3.9-0.9c-1.7,0-3,0.3-4,1c-0.9,0.7-1.4,1.4-1.4,2.3
		c0,1.5,1.3,2.7,3.9,3.4l7.5,2.8c2.5,0.8,4.4,1.9,5.7,3.2c1.3,1.3,2,3,2,5c0,2.6-1.2,4.9-3.7,6.8c-2.6,2-6,3-10.2,3
		c-4.2,0-7.6-0.9-10.2-2.8c-2.6-1.8-3.9-4.5-3.9-7.8H113.5z"/>
	<path fill="#323232" d="M146.6,188c0-1.4,0.4-2.5,1.2-3.3c0.8-0.8,2-1.2,3.5-1.2c1.5,0,2.6,0.4,3.5,1.2c0.8,0.8,1.3,1.9,1.3,3.3
		c0,1.4-0.4,2.5-1.3,3.3s-2,1.2-3.5,1.2c-1.5,0-2.7-0.4-3.5-1.2C147,190.5,146.6,189.4,146.6,188z M147.5,198.2h7.7V230h-7.7V198.2z
		"/>
	<path fill="#323232" d="M174.3,217c-2.6-2.2-3.9-4.9-3.9-8.2c0-3.4,1.3-6.2,4-8.4c2.6-2,5.6-3.1,9-3.1c3.4,0,6.2,0.6,8.5,1.9
		c0.3-2.5,1.3-4.5,3.2-6c1.8-1.5,4-2.3,6.5-2.3l-0.4,7.4c-3.7,0-5.7,1.2-5.8,3.7c1.6,2,2.4,4,2.4,6.1s-0.4,3.8-1.1,5.3
		c-0.7,1.4-1.7,2.6-3,3.6c-2.6,2.1-5.8,3.1-9.5,3.1c-2.1,0-4.1-0.3-5.8-1c-1.7,0.5-2.6,1.6-2.6,3.1c0,2,1.7,2.9,5,2.9h10.6
		c7.2,0,10.8,2.5,10.8,7.6c0,1.7-0.4,3.4-1.3,5c-0.8,1.6-2.1,3.1-3.7,4.3c-3.6,2.8-8.1,4.2-13.5,4.2c-5.2,0-9.5-1.1-12.7-3.2
		c-3-2-4.6-4.6-4.6-7.5c0-2,0.6-3.5,1.8-4.7c1.2-1.2,2.8-1.9,4.7-2.2c-2.6-1.6-3.9-3.5-3.9-5.8c0-1.5,0.5-2.8,1.4-3.8
		C171.5,218.2,172.8,217.4,174.3,217z M180.2,230.7c-4.1,0.2-6.1,1.7-6.1,4.6c0,1.5,0.9,2.7,2.6,3.6c1.7,0.9,3.8,1.3,6.1,1.3
		c2.4,0,4.2-0.2,5.5-0.6c1.3-0.4,2.4-0.9,3.4-1.6c2-1.3,2.9-2.9,2.9-4.7c0-0.8-0.3-1.4-0.8-1.9c-0.5-0.5-1.3-0.8-2.4-0.8H180.2z
		 M190.2,208.7c0-1.8-0.5-3.2-1.5-4.3c-1-1.1-2.5-1.7-4.5-1.7c-2,0-3.5,0.6-4.6,1.7c-1,1.1-1.6,2.5-1.6,4.3c0,1.8,0.5,3.2,1.6,4.3
		c1,1.1,2.6,1.7,4.6,1.7c2,0,3.5-0.6,4.5-1.7C189.7,211.9,190.2,210.5,190.2,208.7z"/>
	<path fill="#323232" d="M220.4,203.7c2.1-4.2,5.4-6.3,10.1-6.3c3.9,0,6.9,1.3,8.8,3.9c2,2.6,3,6,3,10.2V230h-7.7v-18.5
		c0-2.4-0.6-4.1-1.7-5.3c-1.1-1.2-2.7-1.8-4.8-1.8c-2,0-3.8,0.9-5.3,2.7c-1.5,1.8-2.2,4.6-2.3,8.2V230h-7.7v-31.7h6.7L220.4,203.7z"
		/>
	<path fill="#323232" d="M43,273.8v2.9H31.1c-1.3,3.4-4.3,5.5-11.6,6.5c-0.2-0.8-0.9-2-1.5-2.7c5.7-0.7,8.3-1.8,9.6-3.8h-9v-2.9h10
		c0.1-0.7,0.2-1.5,0.3-2.4h-8.2v-11.3H24v8.4h16.7v5.3H43z M39.3,267H25.8v-8.1h13.5V267z M36,261.6h-7.2v2.7H36V261.6z M32,277.1
		c3.2,0.9,8.2,2.5,10.7,3.5l-1.5,2.7c-2.4-1.1-7.2-2.8-10.6-3.9L32,277.1z M32.1,271.4c-0.1,0.9-0.2,1.6-0.3,2.4h5.5v-2.4H32.1z"/>
	<path fill="#323232" d="M78,258.5c-0.2,9.7-0.3,21.3,0.8,21.3c0.2,0,0.4-1.6,0.4-4.1c0.5,0.9,1.1,1.7,1.7,2.2
		c-0.2,3.5-0.8,5.1-2.4,5.1c-3.6,0-3.4-10.8-3.4-21.8h-9.4v7.6c0,4.4-0.5,10.5-3.8,14.3c-0.4-0.5-1.4-1.4-2-1.7
		c1.2-1.5,2-3.2,2.4-5.1c-2.5,0.7-5.2,1.6-7.3,2.1l-0.6-2.9c0.8-0.2,1.9-0.5,3-0.8v-5.2h-2.2v-2.8h2.2v-4.6H55v-2.9h7.6v2.9h-2.3
		v4.6h2.1v2.8h-2.1v4.4l2.2-0.6l0.2,1.3c0.3-2,0.4-4.1,0.4-5.9v-10.3H78z M74.4,276.8c0,0.9-0.1,1.6-0.6,2.1c-0.5,0.4-1.1,0.5-2,0.5
		c0-0.7-0.3-1.6-0.6-2.3v5.7h-1.9v-12.2h-1.1v8.8h-1.9v-11.2H69v-2.4h-2.7v-2.6h8v2.6h-2.9v2.4h2.9V276.8z M71.2,277
		c0.5,0,0.9,0,1.1,0c0.1,0,0.2,0,0.2-0.2v-6.1h-1.3V277z"/>
	<path fill="#323232" d="M99.8,278.1H95v2.2h-2.5v-20.6h7.3V278.1z M95,262.5v5h2.2v-5H95z M97.2,275.3v-5H95v5H97.2z M116.9,279.7
		v2.9h-17v-2.9H116.9z M102.8,265.6h-2.1v-5.1h6.1c-0.2-0.7-0.5-1.5-0.8-2.1l2.8-0.8c0.5,0.9,0.9,2,1.1,2.9h6.5v5.1h-2.4v1.6h-11.3
		V265.6z M102.1,268.4h12.4v10h-12.4V268.4z M103.7,263.2v1.4h9.7v-1.4H103.7z M105,272.3h6.3v-1.6H105V272.3z M105,276.1h6.3v-1.6
		H105V276.1z"/>
	<path fill="#323232" d="M137.4,258.8c-0.7,1.9-1.6,3.8-2.6,5.7v18.6h-3.3v-13.6c-0.6,0.7-1.1,1.4-1.7,2c-0.3-0.8-1.2-2.6-1.8-3.5
		c2.5-2.4,4.8-6.3,6.2-10.2L137.4,258.8z M146,265.3v2.9h7v2.9h-7v3.1h7.4v3H146v6h-3.3v-17.9h-1c-1.1,2-2.3,3.9-3.6,5.3
		c-0.5-0.6-1.8-1.7-2.5-2.3c2.4-2.4,4.5-6.4,5.8-10.3l3.1,0.8c-0.4,1.1-0.8,2.3-1.3,3.4h10.6v3.1H146z"/>
	<path fill="#323232" d="M166.1,270.9h10.4V283h-3.2v-1.2h-4.1v1.4h-3.1V270.9z M169.2,274v4.7h4.1V274H169.2z M185.8,268.7h-15.9
		v-9.8h15.9V268.7z M182.5,261.9H173v3.7h9.5V261.9z M189.4,270.9V283h-3.3v-1.3h-4.3v1.4h-3.1v-12.2H189.4z M186.2,278.7V274h-4.3
		v4.7H186.2z"/>
	<path fill="#323232" d="M205.2,265.9c-0.5,0.4-1,0.8-1.5,1.3c-0.5-0.7-1.6-1.7-2.3-2.1c3-2.1,5.2-5,6.4-7.3l3.3,0.6
		c-0.4,0.7-0.8,1.4-1.3,2h4.2c-0.2-0.7-0.5-1.4-0.8-2l3-0.8c0.5,0.8,1,1.9,1.3,2.8h7.7v2.5H217v1.1h7.1v2.1H217v1.1h7.1v2.1H217v1.2
		h9v2.4h-17.5v0.7h-3.2V265.9z M211.9,278.8c-1.9,1.6-5.3,3-8.1,3.6c-0.5-0.7-1.4-1.9-2-2.5c2.8-0.4,6-1.3,7.7-2.3L211.9,278.8z
		 M216,277.1v6h-3.2v-6h-10.6v-2.6h10.6v-1.4h3.2v1.4h10.7v2.6H216z M213.9,262.9h-5.5v1.1h5.5V262.9z M213.9,266.1h-5.5v1.1h5.5
		V266.1z M213.9,269.3h-5.5v1.2h5.5V269.3z M218.9,277.4c2.4,0.8,6,2.1,7.9,2.9l-2,2.1c-1.7-0.8-5.3-2.3-7.8-3.2L218.9,277.4z"/>
	<path fill="#323232" d="M249.3,264.8h-10.6v-2.6h4.5c-0.4-1-1.1-2.4-1.7-3.4l2.5-1.2c0.7,1.1,1.6,2.6,2,3.6l-1.8,1h5.2V264.8z
		 M248.2,266.6c2.7-1.5,3-3.3,3-5.1v-2.9h9.2v5.9c0,0.8,0.1,1.1,0.4,1.1h1.1c0.4,0,1-0.1,1.3-0.2c0.1,0.8,0.1,1.9,0.2,2.7
		c-0.4,0.2-1,0.2-1.5,0.2h-1.4c-2.6,0-3-1.1-3-3.8v-2.9h-3.3v0c0,2.6-0.8,5.7-4.2,7.5c-0.3-0.5-1.1-1.5-1.8-2v1.3h-8.3V266h8.3
		V266.6z M248.2,272.1h-8.4v-2.4h8.4V272.1z M262.8,270.2c-0.9,3.3-2.4,5.9-4.4,7.9c1.7,0.9,3.5,1.6,5.6,2c-0.7,0.7-1.6,2-2,2.9
		c-2.4-0.6-4.5-1.5-6.3-2.7c-1.8,1.2-4,2.1-6.3,2.7c-0.3-0.7-0.8-1.7-1.3-2.4v1h-5.6v1.1h-2.7v-9.4h8.3v6.7c1.8-0.4,3.5-1.1,5-1.9
		c-1.4-1.4-2.6-3.1-3.6-5.1l1.8-0.6h-2.5v-3h11.3l0.5-0.1L262.8,270.2z M245.4,276h-2.8v3h2.8V276z M252.6,272.5
		c0.8,1.5,1.9,2.7,3.2,3.9c1.2-1.1,2.2-2.4,2.9-3.9H252.6z"/>
	<path fill="#323232" d="M287.4,264.8h-11.5v-2.6h4.7c-0.4-1-1.1-2.4-1.7-3.4l2.5-1.2c0.7,1.1,1.6,2.6,2,3.6l-1.8,1h5.7V264.8z
		 M277.1,268.5V266h9.1v2.4H277.1z M286.2,272.1h-9.1v-2.4h9.1V272.1z M286.3,281.7H280v1.1h-2.7v-9.4h9.1V281.7z M280,276v3h3.5v-3
		H280z M300.4,270h-5v13.2H292V270h-4.8v-3.2h4.8v-8.5h3.4v8.5h5V270z"/>
</g>
</svg>
