<?xml version="1.0" encoding="utf-8"?>
<!-- Generator: Adobe Illustrator 18.1.1, SVG Export Plug-In . SVG Version: 6.00 Build 0)  -->
<svg version="1.1" id="圖層_1" xmlns="http://www.w3.org/2000/svg" xmlns:xlink="http://www.w3.org/1999/xlink" x="0px" y="0px"
	 viewBox="0 0 350 260" enable-background="new 0 0 350 260" xml:space="preserve">
<g>
	<g>
		<path fill="#323232" d="M50.3,59.8v-7.7C53.6,54,56.9,55,60,55c1.9,0,3.2-0.5,4.1-1.6c0.8-1.1,1.3-2.7,1.3-4.9V19.3h7.7v29.1
			c0,4.9-1.2,8.5-3.5,10.9c-2.1,2.1-4.9,3.2-8.6,3.2S53.8,61.6,50.3,59.8z"/>
		<path fill="#323232" d="M108.4,55.8c-2,4.2-5.2,6.3-9.6,6.3c-5.6,0-9.3-2.2-11-6.6c-0.7-1.5-1-3.4-1-5.5V29.9h7.7v19.4
			c0,2.1,0.5,3.6,1.5,4.6c1,1,2.2,1.5,3.7,1.5c1.5,0,2.7-0.2,3.7-0.6c1-0.4,1.9-1,2.6-1.9c1.6-1.9,2.4-4.4,2.5-7.5V29.9h7.7v31.7
			h-7.7V55.8z"/>
		<path fill="#323232" d="M131.4,16.9h7.7v44.6h-7.7V16.9z"/>
		<path fill="#323232" d="M154.2,19.7c0-1.4,0.4-2.5,1.2-3.3c0.8-0.8,2-1.2,3.5-1.2c1.5,0,2.6,0.4,3.5,1.2c0.8,0.8,1.3,1.9,1.3,3.3
			c0,1.4-0.4,2.5-1.3,3.3c-0.8,0.8-2,1.2-3.5,1.2c-1.5,0-2.7-0.4-3.5-1.2C154.6,22.2,154.2,21.1,154.2,19.7z M155.1,29.9h7.7v31.7
			h-7.7V29.9z"/>
		<path fill="#323232" d="M203.5,38.5c0.5,1.8,0.8,3.5,0.8,5c0,1.5-0.1,2.9-0.3,4.1h-20.4c0.1,2.6,0.7,4.6,1.9,6.2
			c1.2,1.6,2.9,2.4,5.3,2.4c3.2,0,5-1.4,5.7-4.2h7.7c-0.5,3.2-2,5.7-4.4,7.5c-2.5,1.9-5.5,2.9-9,2.9c-4.2,0-7.6-1.5-10.5-4.6
			c-2.9-3.2-4.4-7.2-4.4-12.2c0-5.1,1.5-9.1,4.4-12.2c2.8-2.9,6.3-4.4,10.5-4.4c4.4,0,7.8,1.5,10.2,4.6
			C202.1,35.1,202.9,36.7,203.5,38.5z M190.9,35.2c-2.2,0-3.9,0.7-5.1,2.1c-1.2,1.4-1.9,3.2-2.1,5.4h13.5c0-3.4-1.1-5.7-3.3-6.9
			C193.1,35.4,192.1,35.2,190.9,35.2z"/>
		<path fill="#323232" d="M240.2,19.3l9.3,32l9-29.3h5.2l9.6,29.4l9.9-32.2h8.6l-14.5,42.2h-8.1l-7.9-23.8l-7.9,23.8h-8.1
			l-13.8-42.2H240.2z"/>
		<path fill="#323232" d="M323.4,55.8c-2,4.2-5.2,6.3-9.6,6.3c-5.6,0-9.3-2.2-11-6.6c-0.7-1.5-1-3.4-1-5.5V29.9h7.7v19.4
			c0,2.1,0.5,3.6,1.5,4.6c1,1,2.2,1.5,3.7,1.5c1.5,0,2.7-0.2,3.7-0.6c1-0.4,1.9-1,2.6-1.9c1.6-1.9,2.4-4.4,2.5-7.5V29.9h7.7v31.7
			h-7.7V55.8z"/>
		<path fill="#323232" d="M81.1,106.3c2.7,2.3,4,5.6,4,9.9c0,4.3-1.3,7.6-4,9.9c-2.7,2.3-6.4,3.5-11.1,3.5h-7.2V145h-7.7v-42.2H70
			C74.8,102.8,78.5,104,81.1,106.3z M70,122.9c2.4,0,4.2-0.6,5.4-1.9c1.2-1.3,1.8-2.9,1.8-4.8c0-2-0.6-3.6-1.8-4.9
			c-1.2-1.3-3-1.9-5.4-1.9h-7.2v13.5H70z"/>
		<path fill="#323232" d="M108.1,112.5c2.1,0,4.1,0.3,6,1c1.9,0.7,3.5,1.7,4.8,3.1c3,3,4.5,7.2,4.5,12.6c0,5.3-1.5,9.4-4.5,12.5
			c-2.7,2.8-6.3,4.2-10.8,4.2c-4.5,0-8.1-1.4-10.9-4.2c-3-3-4.5-7.2-4.5-12.5c0-5.4,1.5-9.6,4.5-12.6
			C99.9,113.9,103.5,112.5,108.1,112.5z M115.7,129.2c0-3.3-0.6-5.8-1.9-7.5c-1.3-1.7-3.1-2.5-5.4-2.5c-2.3,0-4.2,0.8-5.7,2.5
			c-1.5,1.7-2.2,4.2-2.2,7.5s0.7,5.8,2,7.5c1.3,1.7,3.1,2.5,5.4,2.5c2.3,0,4.2-0.8,5.7-2.5C115,135,115.7,132.5,115.7,129.2z"/>
		<path fill="#323232" d="M142.7,119.6c1.9-4.5,4.8-6.8,8.6-6.8c0.7,0,1.7,0.2,2.8,0.5l-0.1,7.7c-1.2-0.3-2.4-0.4-3.6-0.4
			c-5.1,0-7.7,3.5-7.7,10.6V145h-7.7v-31.7h7.7V119.6z"/>
		<path fill="#323232" d="M182.5,144.2c-2.9,1.1-5.1,1.7-6.8,1.7c-1.6,0-3.1-0.2-4.3-0.6c-1.2-0.4-2.3-1-3.3-1.8c-2-1.8-3-4.2-3-7.3
			v-17.7h-4.4v-5.1h4.4v-8.3h7.7v8.3h8.6v5.1h-8.6v17.4c0,2.6,1.2,3.9,3.7,3.9c1.3,0,2.9-0.3,4.9-1L182.5,144.2z"/>
		<path fill="#323232" d="M189.5,113.4h4.7v-3.7c0-3.3,1-5.7,2.9-7.5c1.7-1.6,4-2.3,6.8-2.3c1.8,0,4,0.3,6.6,0.8l-1.5,5.9
			c-1.2-0.4-2.3-0.6-3.3-0.6c-1,0-1.8,0.3-2.6,0.8c-0.7,0.5-1.1,1.5-1.1,3v3.6h5.8v5.1h-5.8V145h-7.7v-26.5h-4.7V113.4z"/>
		<path fill="#323232" d="M231.8,112.5c2.1,0,4.1,0.3,6,1c1.9,0.7,3.5,1.7,4.8,3.1c3,3,4.5,7.2,4.5,12.6c0,5.3-1.5,9.4-4.5,12.5
			c-2.7,2.8-6.3,4.2-10.8,4.2s-8.1-1.4-10.9-4.2c-3-3-4.5-7.2-4.5-12.5c0-5.4,1.5-9.6,4.5-12.6C223.6,113.9,227.2,112.5,231.8,112.5
			z M239.4,129.2c0-3.3-0.7-5.8-2-7.5c-1.3-1.7-3.1-2.5-5.4-2.5c-2.3,0-4.2,0.8-5.7,2.5c-1.5,1.7-2.2,4.2-2.2,7.5s0.7,5.8,2,7.5
			c1.3,1.7,3.1,2.5,5.4,2.5c2.3,0,4.2-0.8,5.7-2.5C238.7,135,239.4,132.5,239.4,129.2z"/>
		<path fill="#323232" d="M258.8,100.4h7.7V145h-7.7V100.4z"/>
		<path fill="#323232" d="M280.9,103.2c0-1.4,0.4-2.5,1.2-3.3c0.8-0.8,2-1.2,3.5-1.2c1.5,0,2.6,0.4,3.5,1.2c0.8,0.8,1.3,1.9,1.3,3.3
			c0,1.4-0.4,2.5-1.3,3.3c-0.8,0.8-2,1.2-3.5,1.2c-1.5,0-2.7-0.4-3.5-1.2C281.3,105.7,280.9,104.6,280.9,103.2z M281.8,113.3h7.7
			V145h-7.7V113.3z"/>
		<path fill="#323232" d="M317.5,112.5c2.1,0,4.1,0.3,6,1c1.9,0.7,3.5,1.7,4.8,3.1c3,3,4.5,7.2,4.5,12.6c0,5.3-1.5,9.4-4.5,12.5
			c-2.7,2.8-6.3,4.2-10.8,4.2s-8.1-1.4-10.9-4.2c-3-3-4.5-7.2-4.5-12.5c0-5.4,1.5-9.6,4.5-12.6C309.3,113.9,312.9,112.5,317.5,112.5
			z M325.1,129.2c0-3.3-0.7-5.8-2-7.5c-1.3-1.7-3.1-2.5-5.4-2.5c-2.3,0-4.2,0.8-5.7,2.5c-1.5,1.7-2.2,4.2-2.2,7.5s0.7,5.8,2,7.5
			c1.3,1.7,3.1,2.5,5.4,2.5c2.3,0,4.2-0.8,5.7-2.5C324.3,135,325.1,132.5,325.1,129.2z"/>
		<path fill="#323232" d="M69,186.2c6.4,0,11.6,1.9,15.5,5.7c4,3.8,6,8.9,6,15.4c0,6.4-2,11.5-6,15.3c-3.9,3.8-9.1,5.7-15.5,5.7
			H55.2v-42.2H69z M63,221.5h6c4,0,7.2-1.3,9.7-4c2.3-2.6,3.5-6,3.5-10.1c0-4.2-1.2-7.6-3.5-10.2c-2.4-2.6-5.7-4-9.7-4h-6V221.5z"/>
		<path fill="#323232" d="M127.6,205.4c0.5,1.8,0.8,3.5,0.8,5c0,1.5-0.1,2.9-0.3,4.1h-20.4c0.1,2.6,0.7,4.6,1.9,6.2
			c1.2,1.6,2.9,2.4,5.3,2.4c3.2,0,5-1.4,5.7-4.2h7.7c-0.5,3.2-2,5.7-4.4,7.5c-2.5,1.9-5.5,2.9-9,2.9c-4.2,0-7.6-1.5-10.5-4.5
			c-2.9-3.2-4.4-7.2-4.4-12.2c0-5.1,1.5-9.1,4.4-12.2c2.8-2.9,6.3-4.4,10.5-4.4c4.4,0,7.8,1.5,10.2,4.6
			C126.3,202,127.1,203.6,127.6,205.4z M115,202.1c-2.2,0-3.9,0.7-5.1,2.1c-1.2,1.4-1.9,3.2-2.1,5.4h13.5c0-3.4-1.1-5.7-3.3-6.9
			C117.2,202.3,116.2,202.1,115,202.1z"/>
		<path fill="#323232" d="M145.1,218.8c0.1,3,2.3,4.5,6.6,4.5c1.6,0,3-0.4,4.1-1.1c1.1-0.7,1.6-1.5,1.6-2.5c0-1-0.3-1.7-1-2.2
			c-0.6-0.5-1.7-1-3.1-1.4l-6.9-2.5c-5.1-1.8-7.7-4.7-7.7-8.7c0-2.7,1.2-4.8,3.6-6.5c2.4-1.6,5.6-2.4,9.7-2.4c4.1,0,7.2,0.9,9.4,2.7
			c2.2,1.8,3.3,4,3.4,6.7h-7.2c-0.1-1-0.6-1.9-1.5-2.5c-0.9-0.6-2.2-0.9-3.9-0.9c-1.7,0-3,0.3-3.9,1s-1.4,1.4-1.4,2.3
			c0,1.5,1.3,2.6,3.8,3.4l7.5,2.8c2.5,0.8,4.4,1.9,5.7,3.2c1.3,1.3,2,2.9,2,5c0,2.6-1.2,4.9-3.7,6.8c-2.6,2-5.9,3-10.1,3
			c-4.2,0-7.6-0.9-10.1-2.8c-2.6-1.8-3.9-4.4-3.9-7.8H145.1z"/>
		<path fill="#323232" d="M178.1,186.6c0-1.4,0.4-2.5,1.2-3.3c0.8-0.8,2-1.2,3.5-1.2c1.5,0,2.6,0.4,3.5,1.2s1.3,1.9,1.3,3.3
			c0,1.4-0.4,2.5-1.3,3.3c-0.8,0.8-2,1.2-3.5,1.2c-1.5,0-2.7-0.4-3.5-1.2C178.5,189.1,178.1,188,178.1,186.6z M179,196.8h7.7v31.7
			H179V196.8z"/>
		<path fill="#323232" d="M205.7,215.5c-2.6-2.2-3.8-4.9-3.8-8.1c0-3.4,1.3-6.2,4-8.3c2.6-2,5.6-3.1,8.9-3.1c3.4,0,6.2,0.6,8.4,1.9
			c0.3-2.5,1.3-4.5,3.2-6c1.8-1.5,4-2.3,6.4-2.3l-0.4,7.3c-3.7,0-5.7,1.2-5.8,3.7c1.6,2,2.4,4,2.4,6.1c0,2.1-0.4,3.8-1.1,5.2
			c-0.7,1.4-1.7,2.6-3,3.5c-2.6,2.1-5.8,3.1-9.5,3.1c-2.1,0-4.1-0.3-5.8-1c-1.7,0.5-2.6,1.6-2.6,3.1c0,2,1.6,2.9,4.9,2.9h10.6
			c7.2,0,10.8,2.5,10.8,7.5c0,1.7-0.4,3.3-1.3,5c-0.8,1.6-2.1,3.1-3.7,4.3c-3.6,2.8-8,4.2-13.4,4.2c-5.2,0-9.4-1.1-12.7-3.2
			c-3-2-4.5-4.5-4.5-7.5c0-2,0.6-3.5,1.8-4.6c1.2-1.1,2.8-1.9,4.7-2.2c-2.6-1.6-3.8-3.5-3.8-5.8c0-1.5,0.5-2.8,1.4-3.8
			C202.9,216.7,204.1,215.9,205.7,215.5z M211.5,229.1c-4.1,0.2-6.1,1.7-6.1,4.6c0,1.5,0.9,2.7,2.6,3.5c1.7,0.9,3.7,1.3,6.1,1.3
			s4.2-0.2,5.5-0.6c1.3-0.4,2.4-0.9,3.3-1.6c1.9-1.3,2.9-2.9,2.9-4.7c0-0.8-0.3-1.4-0.8-1.9c-0.5-0.5-1.3-0.7-2.4-0.7H211.5z
			 M221.4,207.3c0-1.8-0.5-3.2-1.5-4.3c-1-1.1-2.5-1.7-4.5-1.7c-2,0-3.5,0.6-4.5,1.7c-1,1.1-1.6,2.5-1.6,4.3s0.5,3.2,1.6,4.3
			c1,1.1,2.6,1.7,4.5,1.7c2,0,3.5-0.6,4.5-1.7C221,210.5,221.4,209,221.4,207.3z"/>
		<path fill="#323232" d="M251.5,202.3c2.1-4.2,5.4-6.3,10-6.3c3.9,0,6.8,1.3,8.8,3.8c2,2.6,3,5.9,3,10.1v18.5h-7.7V210
			c0-2.3-0.6-4.1-1.7-5.3c-1.1-1.2-2.7-1.8-4.7-1.8c-2,0-3.8,0.9-5.2,2.7c-1.5,1.8-2.2,4.6-2.3,8.2v14.6H244v-31.6h6.7L251.5,202.3z
			"/>
	</g>
	<g>
		<path fill="#323232" d="M34,28.4v1.9h-7.9c-0.8,2.3-2.8,3.6-7.7,4.3c-0.1-0.5-0.6-1.4-1-1.8c3.7-0.5,5.5-1.2,6.4-2.5h-6v-1.9h6.6
			c0.1-0.5,0.1-1,0.2-1.6h-5.4v-7.5h2.2v5.5h11v3.5H34z M31.5,23.9h-8.9v-5.4h8.9V23.9z M29.4,20.3h-4.8v1.8h4.8V20.3z M26.7,30.6
			c2.1,0.6,5.4,1.7,7.1,2.3l-1,1.8c-1.6-0.7-4.8-1.8-7-2.6L26.7,30.6z M26.8,26.8c-0.1,0.6-0.1,1.1-0.2,1.6h3.6v-1.6H26.8z"/>
		<path fill="#323232" d="M32.8,45.8c-0.1,6.4-0.2,14.1,0.5,14.1c0.2,0,0.3-1.1,0.3-2.7c0.3,0.6,0.8,1.2,1.1,1.5
			c-0.2,2.3-0.5,3.4-1.6,3.4c-2.4,0-2.3-7.1-2.2-14.5h-6.2v5c0,2.9-0.3,6.9-2.5,9.5c-0.3-0.3-1-0.9-1.3-1.2c0.8-1,1.3-2.1,1.6-3.4
			c-1.7,0.5-3.4,1-4.8,1.4l-0.4-1.9c0.6-0.1,1.2-0.3,2-0.5v-3.4h-1.5v-1.9h1.5v-3h-1.6v-1.9h5v1.9h-1.5v3h1.4v1.9h-1.4v2.9l1.5-0.4
			l0.1,0.9c0.2-1.3,0.3-2.7,0.3-3.9v-6.8H32.8z M30.5,57.9c0,0.6-0.1,1.1-0.4,1.4c-0.3,0.3-0.7,0.3-1.3,0.3c0-0.4-0.2-1.1-0.4-1.5
			v3.8h-1.3v-8.1h-0.7v5.8h-1.3v-7.4h1.8v-1.6h-1.8v-1.7h5.3v1.7h-1.9v1.6h1.9V57.9z M28.4,58.1c0.3,0,0.6,0,0.7,0
			c0.1,0,0.1,0,0.1-0.2v-4.1h-0.8V58.1z"/>
		<path fill="#323232" d="M23,86.3h-3.2v1.5h-1.7V74.1H23V86.3z M19.8,76v3.3h1.5V76H19.8z M21.3,84.5v-3.3h-1.5v3.3H21.3z
			 M34.3,87.4v1.9H23v-1.9H34.3z M25,78.1h-1.4v-3.4h4.1c-0.1-0.5-0.3-1-0.5-1.4l1.8-0.5c0.3,0.6,0.6,1.3,0.8,1.9H34v3.4h-1.6v1.1
			H25V78.1z M24.5,79.9h8.2v6.6h-8.2V79.9z M25.6,76.5v0.9h6.4v-0.9H25.6z M26.4,82.5h4.2v-1h-4.2V82.5z M26.4,85h4.2v-1h-4.2V85z"
			/>
		<path fill="#323232" d="M23.5,101.1c-0.5,1.3-1.1,2.5-1.7,3.7v12.3h-2.2v-9c-0.4,0.5-0.8,0.9-1.1,1.3c-0.2-0.5-0.8-1.7-1.2-2.3
			c1.6-1.6,3.2-4.2,4.1-6.7L23.5,101.1z M29.2,105.4v1.9h4.7v1.9h-4.7v2h4.9v2h-4.9v4H27v-11.8h-0.7c-0.7,1.3-1.5,2.6-2.4,3.5
			c-0.3-0.4-1.2-1.2-1.6-1.5c1.6-1.6,3-4.2,3.8-6.8l2.1,0.5c-0.3,0.8-0.5,1.5-0.9,2.2h7v2H29.2z"/>
		<path fill="#323232" d="M18.2,136.7h6.9v8h-2.1v-0.8h-2.7v0.9h-2V136.7z M20.2,138.7v3.1h2.7v-3.1H20.2z M31.2,135.2H20.7v-6.5
			h10.6V135.2z M29.1,130.7h-6.3v2.4h6.3V130.7z M33.7,136.7v8h-2.2v-0.8h-2.9v0.9h-2.1v-8.1H33.7z M31.5,141.8v-3.1h-2.9v3.1H31.5z
			"/>
		<path fill="#323232" d="M19.8,160.9c-0.3,0.3-0.6,0.6-1,0.8c-0.3-0.5-1-1.1-1.5-1.4c2-1.4,3.5-3.3,4.3-4.8l2.2,0.4
			c-0.3,0.5-0.6,0.9-0.9,1.4h2.8c-0.2-0.5-0.4-0.9-0.6-1.3l2-0.6c0.3,0.6,0.6,1.3,0.9,1.9h5.1v1.6h-5.5v0.8h4.7v1.4h-4.7v0.7h4.7
			v1.4h-4.7v0.8h5.9v1.6H21.9v0.5h-2.1V160.9z M24.2,169.4c-1.3,1-3.5,2-5.4,2.4c-0.3-0.5-0.9-1.2-1.3-1.6c1.8-0.3,4-0.8,5.1-1.5
			L24.2,169.4z M26.9,168.3v3.9h-2.1v-3.9h-7v-1.7h7v-0.9h2.1v0.9H34v1.7H26.9z M25.6,158.9h-3.6v0.8h3.6V158.9z M25.6,161h-3.6v0.7
			h3.6V161z M25.6,163.1h-3.6v0.8h3.6V163.1z M28.8,168.5c1.6,0.5,4,1.4,5.2,1.9l-1.3,1.4c-1.2-0.6-3.5-1.5-5.1-2.1L28.8,168.5z"/>
		<path fill="#323232" d="M24.7,187.7h-7V186h3c-0.3-0.7-0.7-1.6-1.2-2.3l1.7-0.8c0.5,0.7,1,1.7,1.3,2.4l-1.2,0.6h3.4V187.7z
			 M23.9,188.9c1.8-1,2-2.2,2-3.4v-1.9H32v3.9c0,0.5,0,0.7,0.3,0.7h0.7c0.3,0,0.6-0.1,0.9-0.1c0,0.5,0.1,1.3,0.1,1.8
			c-0.3,0.1-0.6,0.1-1,0.1H32c-1.7,0-2-0.8-2-2.5v-1.9h-2.2v0c0,1.7-0.5,3.8-2.8,5c-0.2-0.3-0.8-1-1.2-1.3v0.9h-5.5v-1.6h5.5V188.9z
			 M24,192.5h-5.5v-1.6H24V192.5z M33.6,191.3c-0.6,2.2-1.6,3.9-2.9,5.2c1.1,0.6,2.3,1,3.7,1.3c-0.5,0.4-1,1.4-1.3,1.9
			c-1.6-0.4-3-1-4.2-1.8c-1.2,0.8-2.6,1.4-4.2,1.8c-0.2-0.5-0.5-1.1-0.8-1.6v0.6h-3.7v0.8h-1.8v-6.2h5.5v4.4
			c1.2-0.3,2.3-0.7,3.3-1.3c-0.9-0.9-1.7-2.1-2.4-3.3l1.2-0.4h-1.7v-2h7.5l0.4-0.1L33.6,191.3z M22.1,195.1h-1.8v2h1.8V195.1z
			 M26.8,192.8c0.5,1,1.2,1.8,2.1,2.6c0.8-0.7,1.4-1.6,1.9-2.6H26.8z"/>
		<path fill="#323232" d="M25.6,215.2H18v-1.7h3.1c-0.3-0.7-0.7-1.6-1.2-2.3l1.7-0.8c0.5,0.7,1,1.7,1.3,2.4l-1.2,0.6h3.8V215.2z
			 M18.8,217.7V216h6v1.6H18.8z M24.8,220.1h-6v-1.6h6V220.1z M24.8,226.4h-4.2v0.8h-1.8v-6.2h6V226.4z M20.6,222.6v2H23v-2H20.6z
			 M34.2,218.6h-3.3v8.7h-2.2v-8.7h-3.2v-2.1h3.2v-5.7h2.2v5.7h3.3V218.6z"/>
	</g>
</g>
</svg>
