<?xml version="1.0" encoding="utf-8"?>
<!-- Generator: Adobe Illustrator 18.1.1, SVG Export Plug-In . SVG Version: 6.00 Build 0)  -->
<svg version="1.1" id="Capa_1" xmlns="http://www.w3.org/2000/svg" xmlns:xlink="http://www.w3.org/1999/xlink" x="0px" y="0px"
	 viewBox="205 0 50 50" enable-background="new 205 0 50 50" xml:space="preserve">
<g>
	<g>
		<g>
			<path d="M253.4,39.2l-7.6-7.6c-1.5-1.5-4-1.5-5.6,0.1l-3.8,3.8c-0.2-0.1-0.5-0.3-0.7-0.4c-2.4-1.3-5.7-3.2-9.2-6.6
				c-3.5-3.5-5.3-6.8-6.6-9.2c-0.1-0.3-0.3-0.5-0.4-0.7L222,16l1.3-1.3c1.6-1.6,1.6-4.1,0.1-5.6l-7.6-7.6c-1.5-1.5-4-1.5-5.6,0.1
				l-2.1,2.2l0.1,0.1c-0.7,0.9-1.3,2-1.8,3.1c-0.4,1.1-0.7,2.1-0.8,3.1c-1,8.3,2.8,15.9,13.1,26.1c14.2,14.2,25.6,13.1,26.1,13.1
				c1.1-0.1,2.1-0.4,3.2-0.8c1.1-0.4,2.2-1,3.1-1.7l0,0l2.2-2.1C254.9,43.2,254.9,40.7,253.4,39.2z"/>
		</g>
	</g>
</g>
</svg>
