<?xml version="1.0" encoding="utf-8"?>
<!-- Generator: Adobe Illustrator 18.1.1, SVG Export Plug-In . SVG Version: 6.00 Build 0)  -->
<svg version="1.1" id="layer1" xmlns="http://www.w3.org/2000/svg" xmlns:xlink="http://www.w3.org/1999/xlink" x="0px" y="0px"
	 viewBox="0 0 350 70" enable-background="new 0 0 350 70" xml:space="preserve">
<g>
	<path fill="#323232" d="M2.7,29.3v-4.7c2.1,1.2,4,1.8,6,1.8c1.1,0,2-0.3,2.5-1c0.5-0.7,0.8-1.7,0.8-3V4.4h4.8v17.9
		c0,3-0.7,5.2-2.2,6.7c-1.3,1.3-3,2-5.3,2C7,30.9,4.8,30.4,2.7,29.3z"/>
	<path fill="#323232" d="M39.4,26.9c-1.2,2.6-3.2,3.9-5.9,3.9c-3.4,0-5.7-1.3-6.8-4c-0.4-0.9-0.6-2.1-0.6-3.4V10.9h4.7v11.9
		c0,1.3,0.3,2.2,0.9,2.9c0.6,0.6,1.4,0.9,2.3,0.9c0.9,0,1.6-0.1,2.3-0.4c0.6-0.3,1.1-0.6,1.6-1.1c1-1.1,1.5-2.7,1.6-4.6v-9.6h4.7
		v19.5h-4.7V26.9z"/>
	<path fill="#323232" d="M54.6,2.9h4.7v27.4h-4.7V2.9z"/>
	<path fill="#323232" d="M69.6,4.6c0-0.9,0.3-1.5,0.8-2c0.5-0.5,1.2-0.7,2.2-0.7c0.9,0,1.6,0.2,2.1,0.7c0.5,0.5,0.8,1.2,0.8,2
		s-0.3,1.5-0.8,2c-0.5,0.5-1.2,0.7-2.1,0.7c-0.9,0-1.7-0.2-2.2-0.7C69.8,6.2,69.6,5.5,69.6,4.6z M70.2,10.9h4.7v19.5h-4.7V10.9z"/>
	<path fill="#323232" d="M100.9,16.2c0.3,1.1,0.5,2.1,0.5,3.1c0,0.9-0.1,1.8-0.2,2.5H88.7c0.1,1.6,0.4,2.9,1.2,3.8
		c0.7,1,1.8,1.5,3.3,1.5c1.9,0,3.1-0.9,3.5-2.6h4.8c-0.3,1.9-1.2,3.5-2.7,4.6c-1.5,1.2-3.4,1.8-5.6,1.8c-2.6,0-4.7-0.9-6.4-2.8
		c-1.8-1.9-2.7-4.4-2.7-7.5c0-3.1,0.9-5.6,2.7-7.5c1.7-1.8,3.9-2.7,6.4-2.7c2.7,0,4.8,0.9,6.3,2.8C100.1,14.1,100.6,15.1,100.9,16.2
		z M93.2,14.2c-1.3,0-2.4,0.4-3.1,1.3c-0.7,0.9-1.2,2-1.3,3.3H97c0-2.1-0.7-3.5-2-4.2C94.5,14.3,93.9,14.2,93.2,14.2z"/>
	<path fill="#323232" d="M125.6,4.4l5.7,19.7l5.6-18h3.2l5.9,18.1L152,4.4h5.3l-8.9,26h-5l-4.9-14.6l-4.8,14.6h-5l-8.5-26H125.6z"/>
	<path fill="#323232" d="M176.5,26.9c-1.2,2.6-3.2,3.9-5.9,3.9c-3.4,0-5.7-1.3-6.8-4c-0.4-0.9-0.6-2.1-0.6-3.4V10.9h4.7v11.9
		c0,1.3,0.3,2.2,0.9,2.9c0.6,0.6,1.4,0.9,2.3,0.9c0.9,0,1.6-0.1,2.3-0.4c0.6-0.3,1.1-0.6,1.6-1.1c1-1.1,1.5-2.7,1.6-4.6v-9.6h4.7
		v19.5h-4.7V26.9z"/>
	<path fill="#323232" d="M213.2,4.4c3.9,0,7.1,1.2,9.6,3.5c2.5,2.3,3.7,5.5,3.7,9.5c0,3.9-1.2,7.1-3.7,9.4c-2.4,2.3-5.6,3.5-9.6,3.5
		h-8.4v-26H213.2z M209.5,26.1h3.7c2.5,0,4.4-0.8,6-2.5c1.4-1.6,2.2-3.7,2.2-6.2c0-2.6-0.7-4.7-2.2-6.3c-1.5-1.6-3.5-2.4-6-2.4h-3.7
		V26.1z"/>
	<path fill="#323232" d="M250.3,16.2c0.3,1.1,0.5,2.1,0.5,3.1c0,0.9-0.1,1.8-0.2,2.5H238c0.1,1.6,0.4,2.9,1.2,3.8
		c0.7,1,1.8,1.5,3.3,1.5c1.9,0,3.1-0.9,3.5-2.6h4.8c-0.3,1.9-1.2,3.5-2.7,4.6c-1.5,1.2-3.4,1.8-5.6,1.8c-2.6,0-4.7-0.9-6.4-2.8
		c-1.8-1.9-2.7-4.4-2.7-7.5c0-3.1,0.9-5.6,2.7-7.5c1.7-1.8,3.9-2.7,6.4-2.7c2.7,0,4.8,0.9,6.3,2.8C249.4,14.1,249.9,15.1,250.3,16.2
		z M242.5,14.2c-1.3,0-2.4,0.4-3.1,1.3c-0.7,0.9-1.2,2-1.3,3.3h8.3c0-2.1-0.7-3.5-2-4.2C243.8,14.3,243.2,14.2,242.5,14.2z"/>
	<path fill="#323232" d="M262,24.4c0.1,1.8,1.4,2.8,4,2.8c1,0,1.8-0.2,2.5-0.7c0.7-0.4,1-1,1-1.5s-0.2-1-0.6-1.4
		c-0.4-0.3-1-0.6-1.9-0.9l-4.2-1.5c-3.1-1.1-4.7-2.9-4.7-5.4c0-1.7,0.7-3,2.2-4c1.5-1,3.5-1.5,6-1.5c2.5,0,4.4,0.5,5.8,1.6
		c1.3,1.1,2,2.5,2.1,4.1h-4.4c-0.1-0.6-0.4-1.1-0.9-1.5c-0.6-0.4-1.4-0.6-2.4-0.6c-1,0-1.8,0.2-2.4,0.6c-0.6,0.4-0.9,0.9-0.9,1.4
		c0,0.9,0.8,1.6,2.4,2.1l4.6,1.7c1.5,0.5,2.7,1.2,3.5,1.9c0.8,0.8,1.2,1.8,1.2,3.1c0,1.6-0.8,3-2.3,4.2c-1.6,1.2-3.7,1.8-6.2,1.8
		c-2.6,0-4.7-0.6-6.2-1.7c-1.6-1.1-2.4-2.7-2.4-4.8H262z"/>
	<path fill="#323232" d="M283.3,4.6c0-0.9,0.3-1.5,0.8-2c0.5-0.5,1.2-0.7,2.2-0.7c0.9,0,1.6,0.2,2.1,0.7c0.5,0.5,0.8,1.2,0.8,2
		s-0.3,1.5-0.8,2c-0.5,0.5-1.2,0.7-2.1,0.7c-0.9,0-1.7-0.2-2.2-0.7C283.6,6.2,283.3,5.5,283.3,4.6z M283.9,10.9h4.7v19.5h-4.7V10.9z
		"/>
	<path fill="#323232" d="M301.3,22.4c-1.6-1.3-2.4-3-2.4-5c0-2.1,0.8-3.8,2.5-5.1c1.6-1.3,3.4-1.9,5.5-1.9c2.1,0,3.8,0.4,5.2,1.2
		c0.2-1.5,0.8-2.7,2-3.7c1.1-0.9,2.4-1.4,4-1.4l-0.2,4.5c-2.3,0-3.5,0.8-3.6,2.3c1,1.2,1.5,2.5,1.5,3.8c0,1.3-0.2,2.4-0.7,3.2
		c-0.5,0.9-1.1,1.6-1.8,2.2c-1.6,1.3-3.5,1.9-5.8,1.9c-1.3,0-2.5-0.2-3.6-0.6c-1.1,0.3-1.6,1-1.6,1.9c0,1.2,1,1.8,3,1.8h6.5
		c4.4,0,6.6,1.5,6.6,4.6c0,1-0.3,2.1-0.8,3.1c-0.5,1-1.3,1.9-2.3,2.7c-2.2,1.7-4.9,2.6-8.2,2.6c-3.2,0-5.8-0.7-7.8-2
		c-1.9-1.3-2.8-2.8-2.8-4.6c0-1.2,0.4-2.2,1.1-2.9c0.7-0.7,1.7-1.2,2.9-1.3c-1.6-1-2.4-2.1-2.4-3.6c0-0.9,0.3-1.7,0.9-2.3
		C299.6,23.1,300.3,22.7,301.3,22.4z M304.9,30.8c-2.5,0.1-3.8,1.1-3.8,2.8c0,0.9,0.5,1.6,1.6,2.2c1.1,0.5,2.3,0.8,3.7,0.8
		s2.6-0.1,3.4-0.4c0.8-0.2,1.5-0.6,2.1-1c1.2-0.8,1.8-1.8,1.8-2.9c0-0.5-0.2-0.9-0.5-1.2c-0.3-0.3-0.8-0.5-1.5-0.5H304.9z M311,17.4
		c0-1.1-0.3-2-0.9-2.6c-0.6-0.7-1.5-1-2.7-1s-2.2,0.3-2.8,1c-0.6,0.7-1,1.6-1,2.6s0.3,2,1,2.7s1.6,1,2.8,1s2.1-0.3,2.7-1
		S311,18.4,311,17.4z"/>
	<path fill="#323232" d="M330.5,14.3c1.3-2.6,3.3-3.9,6.2-3.9c2.4,0,4.2,0.8,5.4,2.4s1.8,3.7,1.8,6.2v11.4h-4.7V19
		c0-1.4-0.3-2.5-1-3.3c-0.7-0.7-1.7-1.1-2.9-1.1s-2.3,0.6-3.2,1.7s-1.4,2.8-1.4,5v9h-4.7V10.9h4.1L330.5,14.3z"/>
	<path fill="#323232" d="M20.9,61.4v1.7h-8.8c-1,2.6-3.2,4.1-8.4,4.9c-0.1-0.5-0.5-1.2-0.9-1.5c4.4-0.6,6.3-1.6,7.3-3.3H3.2v-1.7
		h7.5c0.1-0.6,0.2-1.4,0.3-2.1H4.8v-8h1.9v6.3h12.4v3.8H20.9z M18.1,56.3H8.3v-5.8h9.7V56.3z M16.2,52.1h-6.1v2.6h6.1V52.1z
		 M12.8,63.6c2.4,0.8,6,2.1,7.8,2.9l-0.9,1.6c-1.7-0.8-5.2-2.2-7.7-3.1L12.8,63.6z M12.8,59.3c-0.1,0.8-0.2,1.5-0.3,2.1h4.7v-2.1
		H12.8z"/>
	<path fill="#323232" d="M66.2,50.2C66.1,57.7,66,66,67,66c0.2,0,0.3-1.2,0.3-3c0.3,0.5,0.7,1,1,1.2c-0.2,2.6-0.5,3.6-1.5,3.6
		c-2.4,0-2.2-7.4-2.2-16.1h-7.4v5.9c0,3.2-0.4,7.5-2.8,10.3c-0.2-0.3-0.8-0.8-1.2-1c1-1.2,1.6-2.6,1.9-4.1c-1.9,0.6-3.9,1.2-5.5,1.7
		l-0.4-1.7c0.7-0.2,1.5-0.4,2.4-0.7v-4.3h-1.8v-1.6h1.8v-3.8h-2v-1.6h5.6v1.6h-1.9v3.8h1.7v1.6h-1.7v3.8c0.6-0.2,1.3-0.4,1.9-0.6
		l0.1,1c0.3-1.5,0.3-3.1,0.3-4.5v-7.4H66.2z M57.7,53.4h6.2v1.5h-2.4V57h2.3v6.6c0,0.6-0.1,1-0.4,1.3c-0.3,0.3-0.8,0.3-1.4,0.3
		c0-0.4-0.2-1-0.4-1.4h0.9c0.1,0,0.2,0,0.2-0.2v-5.1h-1.3v9.3h-1.2v-9.3H59v6.8h-1.2V57H60v-2.1h-2.3V53.4z"/>
	<path fill="#323232" d="M101.9,64.1h-3.6v1.6h-1.5V51h5.1V64.1z M98.3,52.6v4.1h2.1v-4.1H98.3z M100.4,62.5v-4.2h-2.1v4.2H100.4z
		 M114.4,65.8v1.7h-12.2v-1.7H114.4z M104.2,55.2h-1.4v-3.5h4.7c-0.2-0.6-0.4-1.2-0.6-1.8l1.6-0.5c0.4,0.7,0.7,1.6,0.9,2.2h4.8v3.5
		h-1.7v0.9h-8.1V55.2z M103.8,57.3h8.9v7.2h-8.9V57.3z M104.5,53.3v1.3h7.8v-1.3H104.5z M105.5,60.3h5.4v-1.6h-5.4V60.3z
		 M105.5,63.1h5.4v-1.5h-5.4V63.1z"/>
	<path fill="#323232" d="M149.1,50.2c-0.5,1.4-1.2,2.8-2,4.2v13.5h-1.9V57.3c-0.5,0.7-1.1,1.4-1.6,2c-0.2-0.5-0.7-1.5-1-1.9
		c1.9-1.9,3.7-4.8,4.8-7.7L149.1,50.2z M155.1,54.6v2.5h5.4v1.7h-5.4v2.7h5.7v1.7h-5.7v4.6h-1.9V54.6h-1.1c-0.8,1.6-1.8,3-2.7,4
		c-0.3-0.3-1-1-1.4-1.3c1.8-1.8,3.4-4.7,4.3-7.6l1.8,0.5c-0.3,0.9-0.7,1.7-1,2.6h8v1.8H155.1z"/>
	<path fill="#323232" d="M190.1,59.2h7.2v8.6h-1.8v-0.9h-3.6v1h-1.8V59.2z M191.9,61v4.2h3.6V61H191.9z M204.1,57.2h-11.2v-6.8h11.2
		V57.2z M202.2,52.2h-7.5v3.3h7.5V52.2z M206.9,59.2v8.7H205v-0.9h-4v1h-1.8v-8.8H206.9z M205,65.1V61h-4v4.2H205z"/>
	<path fill="#323232" d="M238.5,55c-0.5,0.5-0.9,0.9-1.5,1.3c-0.3-0.4-0.9-1-1.3-1.2c2.2-1.6,3.8-3.8,4.7-5.5l1.9,0.4
		c-0.3,0.6-0.7,1.1-1.1,1.7h3.8c-0.2-0.5-0.5-1.1-0.8-1.6l1.7-0.5c0.4,0.6,0.8,1.5,1,2.1h5.8v1.5h-6.3v1.1h5.4v1.3h-5.4v1.1h5.5v1.3
		h-5.5V59h6.8v1.5h-13.1V61h-1.8V55z M243,64.7c-1.4,1.1-3.9,2.2-6,2.6c-0.3-0.4-0.8-1.1-1.1-1.4c2-0.3,4.5-1,5.7-1.9L243,64.7z
		 M253.9,61.8v1.5h-8v4.6h-1.8v-4.6h-7.9v-1.5h7.9v-1.2h1.8v1.2H253.9z M244.8,53.1h-4.5v1.1h4.5V53.1z M244.8,55.5h-4.5v1.1h4.5
		V55.5z M244.8,57.8h-4.5V59h4.5V57.8z M247.9,63.9c1.8,0.6,4.5,1.5,5.9,2.1l-1.1,1.3c-1.3-0.6-3.9-1.6-5.8-2.3L247.9,63.9z"/>
	<path fill="#323232" d="M290.2,54.4h-7.6v-1.5h3.5c-0.3-0.7-0.9-1.9-1.4-2.7l1.5-0.7c0.5,0.8,1.2,1.9,1.5,2.6l-1.5,0.8h4.1V54.4z
		 M289.4,56.5c2.1-1.2,2.4-2.7,2.4-4v-2.2h6.3v4.5c0,0.6,0,0.8,0.3,0.8h1c0.2,0,0.7,0,0.9-0.1c0,0.5,0.1,1.1,0.1,1.6
		c-0.2,0.1-0.7,0.1-1,0.1h-1.2c-1.5,0-1.9-0.7-1.9-2.4V52h-2.9v0.5c0,1.8-0.5,4-3,5.4c-0.2-0.4-0.8-1-1.1-1.3V57h-6v-1.5h5.9V56.5z
		 M299.8,58.7c-0.7,2.4-1.9,4.3-3.4,5.8c1.3,0.8,2.8,1.4,4.4,1.7c-0.4,0.4-0.9,1.2-1.2,1.7c-1.8-0.5-3.4-1.2-4.8-2.2
		c-1.4,1-3.1,1.7-4.8,2.2c-0.2-0.4-0.5-1-0.8-1.4v0.3h-4.4v0.9h-1.6v-6.8h6v5.3c1.5-0.4,2.9-1,4.1-1.8c-1.2-1.1-2.1-2.5-2.8-4.1
		l1.1-0.4H290v-1.7h8.4l0.3-0.1L299.8,58.7z M283.5,58.2h6v1.4h-6V58.2z M287.8,62.4h-2.7v2.9h2.7V62.4z M292.4,60
		c0.6,1.3,1.5,2.4,2.6,3.4c1-0.9,1.9-2.1,2.5-3.4H292.4z"/>
	<path fill="#323232" d="M337.8,54.4h-8.3v-1.5h3.7c-0.3-0.7-0.9-1.9-1.4-2.7l1.5-0.7c0.6,0.8,1.2,1.9,1.5,2.6l-1.5,0.8h4.5V54.4z
		 M330.4,57v-1.5h6.6V57H330.4z M336.9,59.7h-6.5v-1.4h6.5V59.7z M337,66.8h-4.9v0.9h-1.6v-6.8h6.5V66.8z M332.1,62.4v2.9h3.2v-2.9
		H332.1z M347.3,58.2h-3.9V68h-1.9v-9.8h-3.7v-1.8h3.7V50h1.9v6.4h3.9V58.2z"/>
</g>
</svg>
