<?xml version="1.0" encoding="utf-8"?>
<!-- Generator: Adobe Illustrator 18.1.1, SVG Export Plug-In . SVG Version: 6.00 Build 0)  -->
<svg version="1.1" id="圖層_1" xmlns="http://www.w3.org/2000/svg" xmlns:xlink="http://www.w3.org/1999/xlink" x="0px" y="0px"
	 viewBox="0 0 700 170" enable-background="new 0 0 700 170" xml:space="preserve">
<g>
	<path fill="#FF7BAC" d="M178.3,26.9c1.2-1.4,2.9-1.8,5-1.3c2.1,0.6,4.2,1.6,6.1,3.1c2,1.5,3.5,3.3,4.8,5.3c1.2,2,1.6,3.8,1,5.3
		c-2.3,5.1-5.1,10.8-8.5,17.1c-3.4,6.3-6.9,12.8-10.7,19.5c-3.8,6.7-7.7,13.4-11.6,20.1c-4,6.7-7.7,13-11.3,19
		c-2.7,4.5-5.3,8.9-7.7,13.1c-2.5,4.3-4.6,8.1-6.5,11.5c-1.9,3.4-3.3,6.2-4.4,8.5c-1.1,2.3-1.7,3.8-1.7,4.5c0.1,0.8,0.3,1.4,0.8,1.9
		c0.4,0.5,0.8,0.7,1.1,0.8c8.3-5.4,16.6-11.5,24.9-18.4c8.3-6.8,16.4-14.3,24.2-22.2c7.8-8,15.3-16.3,22.5-25.1
		c7.2-8.7,13.9-17.7,20.1-26.8c6.2-9.2,11.8-18.4,16.8-27.8c5-9.3,9.2-18.6,12.6-27.7c0.5-0.8,1.5-0.8,3.1-0.1
		c1.5,0.8,3.1,1.8,4.7,3.2c1.6,1.4,3,2.9,4.1,4.5c1.1,1.6,1.6,2.9,1.3,3.7c-2.5,5.9-6,12.5-10.4,19.7c-4.5,7.3-9.6,14.8-15.3,22.5
		c-5.8,7.8-12,15.6-18.7,23.6c-6.7,8-13.6,15.7-20.7,23.2c-7.1,7.5-14.2,14.5-21.3,21c-7.1,6.6-13.9,12.3-20.4,17.3
		c-6.5,5-12.6,9-18.1,12c-5.6,3-10.5,4.7-14.5,5.1c-1.8-0.1-3.6-0.5-5.3-1.3c-1.8-0.8-3.3-1.7-4.7-2.8c-1.4-1.2-2.5-2.5-3.4-4
		c-0.9-1.5-1.3-3-1.3-4.5c1.1-2.9,2.2-5.7,3.4-8.5c1.1-2.7,2.4-5.6,3.7-8.5c-2.8,3-5.6,5.9-8.5,8.6c-2.9,2.7-5.7,5.2-8.4,7.4
		c-2.8,2.2-5.4,4.1-8,5.7c-2.6,1.6-5.1,2.7-7.3,3.5c-2.6,0.6-5.1,0.9-7.5,0.9c-3.3,0-6.2-0.6-8.6-1.6c-2.5-1.1-4.5-2.6-6.1-4.4
		c-1.6-1.9-2.8-4-3.6-6.5c-0.8-2.5-1.2-5.1-1.2-8c0-1.2,0.1-2.4,0.2-3.6c0.2-1.2,0.3-2.4,0.5-3.6c1.5-6.1,4.1-13.3,7.7-21.7
		c3.6-8.3,8-17.2,13.1-26.5c5-9.3,10.6-18.8,16.6-28.4c6-9.6,12.1-18.9,18.3-27.8c0.8-0.9,1.2-2,1.3-3.4c0-1.4-0.3-2.1-1.1-2.2
		c-7.2,0.7-14.4,2.3-21.5,4.7c-7.1,2.5-13.9,5.5-20.3,9.2c-6.4,3.7-12.4,7.7-17.8,12.2c-5.5,4.5-10.3,9.1-14.3,13.7
		c-4,4.6-7.1,9.1-9.3,13.6c-2.2,4.5-3.2,8.5-3,12.2h-0.5c-0.5,0.7-1.7,0.9-3.7,0.5c-2-0.3-3.9-1.1-5.9-2.3c-2-1.2-3.7-2.8-5.2-4.7
		s-1.9-4.2-1.4-6.7c1.9-7.1,5-13.6,9.3-19.5c4.3-5.9,9.3-11.2,15-15.9c5.7-4.7,11.9-8.8,18.6-12.3c6.7-3.5,13.4-6.4,20.3-8.8
		c6.8-2.3,13.4-4.1,19.8-5.3c6.4-1.2,12.2-1.8,17.3-1.8c1.2,0,2.4,0,3.6,0c1.2,0,2.3,0.1,3.3,0.3c1.8,0.2,3.6,0.8,5.5,1.8
		c1.8,1,3.5,2.2,5,3.5c1.5,1.3,2.7,2.7,3.7,4.1c0.9,1.5,1.4,2.8,1.4,4c0,0.6-0.5,1.9-1.3,3.8c-0.9,1.9-2.1,4.3-3.7,7.2
		c-1.6,2.9-3.4,6.2-5.5,9.8c-2.2,3.7-4.4,7.6-6.8,11.8c-2.8,4.9-5.8,10-8.8,15.4c-3.1,5.4-6.2,10.8-9.2,16.3
		c-3.1,5.5-5.9,11-8.6,16.3c-2.7,5.4-5.1,10.5-7.2,15.4c-2.1,4.9-3.8,9.3-5,13.4c-1.2,4.1-1.8,7.6-1.8,10.5c0,2.8,0.6,4.9,2,6.3
		c1.3,1.4,3.3,1.8,6,1.3c3.4-0.9,7.1-3,11.1-6.3c4-3.3,8.1-7.3,12.3-11.9c4.2-4.7,8.4-9.8,12.5-15.3c4.1-5.6,8-11,11.7-16.5
		c3.6-5.4,7-10.6,10-15.5c3-4.8,5.5-8.9,7.4-12.1l0.5-0.3c3.5-6.3,7-12.6,10.5-19c3.5-6.4,6.9-13.2,10.3-20.4
		c0.1-0.1,0.3-0.5,0.6-1.3c0.3-0.8,0.6-1.6,0.9-2.5s0.5-1.7,0.8-2.5c0.2-0.8,0.3-1.3,0.3-1.5H178.3z"/>
	<path fill="#FF7BAC" d="M283.1,87.8c-4.3,7.8-10,14.3-17.3,19.6s-15.3,9.2-24.3,11.8v1.2c0,3.2,0.6,6.3,1.9,9.4
		c1.2,3.1,3.2,5,5.9,5.9c1.9,0.4,4.2,0.2,6.9-0.5c2.7-0.8,5.6-2.1,8.6-4s6.1-4.5,9.3-7.7c3.2-3.1,6.3-6.9,9.3-11.3
		c1.6-2.3,3-4.5,4.3-6.8c1.3-2.2,2.5-4.3,3.6-6.3c0.6-0.8,1.4-1.3,2.4-1.5c1-0.2,1.9-0.2,2.8,0.1c0.8,0.3,1.4,0.7,1.8,1.4
		c0.3,0.7,0.2,1.6-0.4,2.6l-2.8,4.6c-2.4,3.9-5.4,8.3-8.9,13.1c-3.5,4.9-7.8,9.6-12.8,14.3c-2.8,2.4-5.6,4.3-8.4,5.5
		c-2.8,1.3-5.5,2.3-8,2.9c-2.5,0.7-4.9,1-7,1.1c-2.1,0.1-3.8,0.2-5,0.2c-7.4,0-13.2-1.8-17.3-5.4c-4.1-3.6-6.3-8.5-6.6-14.7
		c-0.2-5.7,0.9-11.3,3.1-16.9c2.3-5.6,6-11.7,11.1-18.5c1.6-2.1,3.8-4.4,6.5-6.9c2.7-2.5,5.9-4.8,9.3-6.8c3.5-2,7.1-3.7,11-5
		c3.9-1.3,7.8-1.9,11.7-1.8c3.8,0.1,6.8,1.1,9.1,3c2.3,1.9,3.5,4.4,3.5,7.5C286.7,80.8,285.5,84.1,283.1,87.8z M274.1,75
		c-3.9,0.8-7.6,2.7-11.2,5.6c-3.6,3-6.7,6.4-9.5,10.3c-2.8,3.9-5.1,8-7,12.2c-2,4.2-3.3,7.9-4.1,11.1c7.2-2.5,13.7-6.2,19.6-11.2
		c5.9-5,10.7-11,14.5-18.2c0.8-1.8,1.2-3.6,1.2-5.4c0-1.5-0.3-2.6-0.8-3.5C276.2,75.1,275.3,74.8,274.1,75z"/>
	<path fill="#FF7BAC" d="M331.9,69.6c-0.9,1.7-2.1,4.1-3.7,7.1c-1.6,3.1-3.2,6.5-5,10.2s-3.6,7.7-5.5,11.8c-1.9,4.1-3.5,8.1-5,11.9
		c-1.5,3.9-2.7,7.4-3.7,10.7c-1,3.3-1.4,6-1.4,8.1c0,2.2,0.2,3.6,0.8,4h1.2c2.7-1,5.3-2.6,7.8-4.7c2.5-2.1,4.9-4.6,7.1-7.3
		c2.3-2.8,4.4-5.7,6.5-8.8c2-3.1,3.9-6.1,5.6-9h-0.2c0.5-0.8,1-1.6,1.5-2.3c0.5-0.8,1-1.5,1.5-2.3c0.3-0.5,0.9-0.8,1.7-0.8
		c0.8,0,1.7,0.1,2.5,0.4c0.8,0.3,1.4,0.7,2,1.2c0.5,0.5,0.6,1.1,0.3,1.8l-3.8,6.1c-1.5,2.4-3.1,4.9-4.7,7.5
		c-1.6,2.6-3.4,5.2-5.3,7.7c-1.9,2.5-3.9,5-6,7.3c-2.1,2.4-4.3,4.5-6.6,6.4c-0.7,0.6-1.6,1.3-2.7,2.1c-1.1,0.8-2.4,1.5-3.8,2.2
		c-1.5,0.7-3.1,1.2-4.9,1.6c-1.8,0.5-3.7,0.7-5.7,0.7c-4.1-0.2-7-1.6-8.8-4.2c-1.8-2.6-2.7-5.8-2.7-9.6c0-0.8,0.1-1.7,0.1-2.8
		c0.1-1.1,0.3-2.1,0.4-3c1.4-8.6,3.9-17.1,7.7-25.7c3.7-8.5,7.7-17,12-25.3l5.8-11.5c3.3-6.8,6.4-13.7,9.3-20.6
		c2.9-6.9,5-12.9,6.5-18.1c1.2-0.6,2.8-0.6,5-0.2c2.1,0.5,4.1,1.4,6,2.5c1.9,1.2,3.5,2.7,4.6,4.4c1.2,1.7,1.5,3.4,0.9,5.1
		c-0.4,1.1-1.2,2.9-2.3,5.3c-1.2,2.5-2.5,5.3-4,8.4c-1.6,3.1-3.2,6.5-5,10c-1.8,3.5-3.4,6.8-5,9.9L331.9,69.6z"/>
	<path fill="#FF7BAC" d="M412.4,106.2c-2.4,3.9-5.4,8.3-8.9,13.1c-3.5,4.9-7.8,9.6-12.8,14.3c-2.8,2.4-5.6,4.3-8.4,5.5
		c-2.8,1.3-5.5,2.3-8,2.9c-2.5,0.7-4.9,1-7,1.1c-2.1,0.1-3.8,0.2-5,0.2c-7.4,0-13.2-1.8-17.3-5.4c-4.1-3.6-6.3-8.5-6.6-14.7
		c-0.2-5.7,0.9-11.3,3.1-16.9c2.3-5.6,6-11.7,11.1-18.5c1.6-2.1,3.8-4.4,6.5-6.9c2.7-2.5,5.9-4.8,9.3-6.8c3.5-2,7.1-3.7,11-5
		c3.9-1.3,7.8-1.9,11.7-1.8c3.8,0.1,6.8,1.1,9,3c2.2,1.9,3.3,4.3,3.3,7.3c0,2.6-1,5.5-2.8,8.5c-0.8,0.9-1.7,1.6-2.6,2
		c-1,0.4-1.9,0.6-2.7,0.5c-0.9,0-1.5-0.3-2-0.9c-0.5-0.5-0.6-1.3-0.4-2.3c0.6-1.1,1-2.2,1.3-3.3c0.2-1.1,0.4-2.1,0.4-3
		c0-1.4-0.3-2.5-0.8-3.3c-0.6-0.8-1.4-1.1-2.6-0.9c-3.9,0.8-7.6,2.7-11.2,5.6c-3.6,3-6.7,6.4-9.5,10.3c-2.8,3.9-5.1,8-7,12.2
		c-2,4.2-3.3,7.9-4.1,11.1c-0.5,2-0.8,4-0.8,6.2c0,3.2,0.6,6.3,1.9,9.4c1.2,3.1,3.2,5,5.9,5.9c1.9,0.4,4.2,0.2,6.9-0.5
		c2.7-0.8,5.6-2.1,8.6-4s6.1-4.5,9.3-7.7c3.2-3.1,6.3-6.9,9.3-11.3c1.6-2.3,3-4.5,4.3-6.8c1.3-2.2,2.5-4.3,3.6-6.3
		c0.6-0.8,1.4-1.3,2.4-1.5c1-0.2,1.9-0.2,2.8,0.1c0.8,0.3,1.4,0.7,1.8,1.4c0.3,0.7,0.2,1.6-0.4,2.6L412.4,106.2z"/>
	<path fill="#FF7BAC" d="M459.8,67.1c2.5,0.3,4.6,0.9,6.4,1.8c1.8,0.9,3.3,2,4.4,3.3c1.1,1.3,2,2.8,2.5,4.3c0.5,1.6,0.9,3.2,1.1,4.8
		c1.9,2.1,3.1,5,3.6,8.7c0.1,0.7,0.2,1.4,0.2,2.1c0,0.7,0.1,1.5,0.1,2.3c0,3.7-0.5,7.5-1.6,11.3c-1.1,3.8-2.5,7.5-4.4,11.1
		c-1.9,3.6-4.2,7-6.8,10.1c-2.6,3.2-5.4,5.9-8.5,8.3c-3.1,2.4-6.3,4.3-9.6,5.6c-3.4,1.3-6.8,2-10.3,2c-6.1-0.1-11.5-2-16.2-5.6
		c-4.7-3.6-7.9-8.8-9.6-15.5c-0.5-2.2-0.8-4.3-0.8-6.3c0-5.5,1.4-11.2,4.2-17.1c2.8-5.9,6.5-11.3,11.2-16c4.6-4.8,9.9-8.6,15.8-11.5
		C447.6,67.8,453.6,66.6,459.8,67.1z M456.5,97.2c-0.6-0.2-1.1-0.7-1.4-1.4c-0.4-0.8-0.6-1.6-0.8-2.6c-0.1-1-0.2-2-0.2-3
		c0-1,0-1.9,0-2.7c0.1-0.8,0.5-1.6,1.3-2.5c0.8-0.8,1.7-1.6,2.6-2.3c0.9-0.7,1.9-1.3,2.9-1.9c0.9-0.5,1.6-0.9,1.9-1.1
		c0.9-0.5,1.7-0.8,2.5-0.9c-0.1-1.4-0.6-2.6-1.4-3.6c-0.8-1-2.4-1.4-4.6-1.2c-2,0.2-4.4,1-7.3,2.5c-2.8,1.5-5.5,3.5-8,6h0.1
		c-2.3,2.3-4.4,4.9-6.2,7.9c-1.9,3-3.4,6-4.7,9.2c-1.3,3.2-2.3,6.3-3.1,9.5c-0.8,3.2-1.1,6.2-1.1,9c0,4.2,0.8,7.8,2.5,10.6
		c1.7,2.9,4.3,4.5,8,4.7c3.7,0.2,7.3-1.1,10.9-4c3.6-2.9,6.8-6.5,9.7-11c2.8-4.4,5.1-9.1,6.9-14.2c1.7-5,2.6-9.7,2.5-13.9
		c0-2-0.2-3.2-0.6-3.6c-0.9,0-1.9,0.4-3,1.1c-1.1,0.8-2.2,1.7-3.1,2.7c-1,1-1.9,2.2-2.6,3.4s-1.2,2.3-1.3,3.3H456.5z"/>
	<path fill="#FF7BAC" d="M605.9,114.6c-1.4,2.2-3.3,4.9-5.7,8.2c-2.4,3.3-5.1,6.4-8,9.4c-3,3-6.1,5.6-9.5,7.7
		c-3.4,2.2-6.8,3.2-10.2,3.2c-2,0-3.9-0.3-5.7-0.9c-1.8-0.6-3.4-1.5-4.8-2.7c-1.4-1.2-2.5-2.7-3.3-4.6c-0.8-1.9-1.2-4.1-1-6.8
		c0.1-2.5,0.5-5,1-7.5c0.6-2.5,1.4-5.2,2.4-8c1-2.8,2.2-6,3.5-9.4c1.3-3.4,2.9-7.2,4.7-11.4c0.8-2,1.5-3.9,2.1-5.7
		c0.6-1.8,0.9-3.4,0.9-4.8c0-1-0.6-1.3-1.9-0.8c-1.3,0.5-3.3,1.9-6.2,4.3c-3.5,3.2-6.8,6.4-9.8,9.5c-3,3.1-6,6.6-8.9,10.3
		c-1.6,3.4-3.1,7.1-4.5,11.1c-1.3,4-2.5,8.2-3.5,12.7c-1,4.5-1.6,9-1.9,13.6c0,1-0.8,1.4-2.3,1.2c-1.5-0.2-3.1-0.7-4.9-1.4
		c-1.8-0.8-3.4-1.7-4.9-2.8c-1.5-1.1-2.3-2.2-2.4-3.2c0.3-7,1.6-14,3.8-21.1c2.3-7.1,4.8-14.3,7.7-21.7c1.5-3.8,2.6-6.9,3.3-9.4
		c0.7-2.5,0.8-4,0.3-4.5c-1.2,0.2-4.1,2.2-8.6,5.8c-3.5,3.1-6.7,6.2-9.6,9.4c-2.9,3.2-5.9,6.6-9,10.4c-2.6,5.9-4.8,12-6.6,18.2
		c-1.8,6.2-3,12.6-3.5,19.2c-0.1,0.9-0.9,1.2-2.4,1s-3.1-0.7-4.8-1.4c-1.7-0.8-3.3-1.7-4.8-2.8c-1.5-1.1-2.3-2.1-2.4-3.2
		c0.4-7.5,1.8-14.9,4.3-22.3c2.4-7.4,5.1-14.8,7.9-22.3c1.4-3.5,2.8-7.1,4.1-10.8c1.3-3.7,2.6-7.7,3.8-12.2c1.2-0.6,2.8-0.6,4.9-0.1
		c2.1,0.6,4.1,1.4,6,2.6c1.9,1.2,3.5,2.7,4.7,4.3c1.2,1.7,1.5,3.4,0.9,5.1h0.1c0,0.2-0.1,0.4-0.1,0.5c3.7-3.5,7.6-6.5,11.8-8.9
		c4.2-2.4,8.6-3.8,13.2-4.1c1.2,0,2.5,0.4,4,1.3c1.4,0.9,2.8,1.9,4,3.1c1.2,1.3,2.1,2.6,2.7,4c0.6,1.4,0.7,2.7,0.3,3.8
		c-0.2,0.3-0.3,0.6-0.4,0.9c-0.1,0.3-0.2,0.6-0.4,0.8c3.8-3.6,7.9-6.7,12.3-9.4c4.4-2.6,9-4.1,13.8-4.4c1.1,0,2.3,0.4,3.8,1.3
		c1.4,0.9,2.7,1.9,3.8,3.1c1.1,1.3,2,2.6,2.7,4c0.6,1.4,0.8,2.7,0.4,3.8c-1.7,4.8-3.4,9.2-5.1,13.2c-1.7,4-3.2,7.5-4.5,10.4
		c-1.2,2.5-2.3,4.9-3.1,7c-0.9,2.2-1.7,4.4-2.4,6.6c-0.7,2.2-1.3,4.5-1.8,6.8c-0.5,2.3-0.9,4.8-1,7.5c-0.1,0.5,0,1.1,0.3,1.7
		s1,0.7,2.1,0.2c2.8-1.3,6.1-3.7,9.9-7.1c3.8-3.5,7.7-8.2,11.8-14.2c0.9-1.3,1.8-2.8,2.9-4.6c1-1.7,2-3.6,3.1-5.6l1.7-2.6
		c0.6-0.8,1.4-1.3,2.4-1.5c1-0.2,1.9-0.2,2.8,0.1c0.8,0.3,1.4,0.7,1.8,1.4c0.3,0.7,0.2,1.6-0.4,2.6c-1.3,2.2-2.6,4.4-4,6.5
		C608.6,110.3,607.2,112.4,605.9,114.6z"/>
	<path fill="#FF7BAC" d="M668.5,87.8c-4.3,7.8-10,14.3-17.3,19.6s-15.3,9.2-24.3,11.8v1.2c0,3.2,0.6,6.3,1.9,9.4
		c1.2,3.1,3.2,5,5.9,5.9c1.9,0.4,4.2,0.2,6.9-0.5c2.7-0.8,5.6-2.1,8.6-4s6.1-4.5,9.3-7.7c3.2-3.1,6.3-6.9,9.3-11.3
		c1.6-2.3,3-4.5,4.3-6.8c1.3-2.2,2.5-4.3,3.6-6.3c0.6-0.8,1.4-1.3,2.4-1.5c1-0.2,1.9-0.2,2.8,0.1c0.8,0.3,1.4,0.7,1.8,1.4
		c0.3,0.7,0.2,1.6-0.4,2.6l-2.8,4.6c-2.4,3.9-5.4,8.3-8.9,13.1c-3.5,4.9-7.8,9.6-12.8,14.3c-2.8,2.4-5.6,4.3-8.4,5.5
		c-2.8,1.3-5.5,2.3-8,2.9c-2.5,0.7-4.9,1-7,1.1c-2.1,0.1-3.8,0.2-5,0.2c-7.4,0-13.2-1.8-17.3-5.4c-4.1-3.6-6.3-8.5-6.6-14.7
		c-0.2-5.7,0.9-11.3,3.1-16.9c2.3-5.6,6-11.7,11.1-18.5c1.6-2.1,3.8-4.4,6.5-6.9c2.7-2.5,5.9-4.8,9.3-6.8c3.5-2,7.1-3.7,11-5
		c3.9-1.3,7.8-1.9,11.7-1.8c3.8,0.1,6.8,1.1,9.1,3c2.3,1.9,3.5,4.4,3.5,7.5C672.1,80.8,670.9,84.1,668.5,87.8z M659.5,75
		c-3.9,0.8-7.6,2.7-11.2,5.6c-3.6,3-6.7,6.4-9.5,10.3c-2.8,3.9-5.1,8-7,12.2c-2,4.2-3.3,7.9-4.1,11.1c7.2-2.5,13.7-6.2,19.6-11.2
		c5.9-5,10.7-11,14.5-18.2c0.8-1.8,1.2-3.6,1.2-5.4c0-1.5-0.3-2.6-0.8-3.5C661.6,75.1,660.7,74.8,659.5,75z"/>
</g>
</svg>
