<?xml version="1.0" encoding="utf-8"?>
<!-- Generator: Adobe Illustrator 18.1.1, SVG Export Plug-In . SVG Version: 6.00 Build 0)  -->
<svg version="1.1" id="圖層_1" xmlns="http://www.w3.org/2000/svg" xmlns:xlink="http://www.w3.org/1999/xlink" x="0px" y="0px"
	 viewBox="0 0 30 30" enable-background="new 0 0 30 30" xml:space="preserve">
<g>
	<rect x="5.2" y="6.7" fill="#FFFFFF" width="15.5" height="15"/>
	<path fill="#666666" d="M13,26.4c-6.8,0-12.4-5.3-13-11.9C0,14.8,0,15.2,0,15.5c0,7.2,5.8,13,13,13s13-5.8,13-13
		c0-0.4,0-0.7-0.1-1.1C25.4,21.1,19.8,26.4,13,26.4z"/>
	<path fill="#4FAEAA" d="M13,1.5c-7.2,0-13,5.8-13,13c0,7.2,5.8,13,13,13s13-5.8,13-13C26,7.3,20.2,1.5,13,1.5z M6.6,20.9
		c0.4-1.6,0.9-3.2,1.3-4.8c1.2,1.2,2.3,2.3,3.5,3.5C9.8,20,8.2,20.5,6.6,20.9z M19,12.1c-2.2,2.2-4.4,4.4-6.5,6.5
		c0,0-0.1,0.1-0.1,0.1c-1.2-1.2-2.4-2.4-3.6-3.6c0,0,0.1-0.1,0.1-0.1c2.2-2.2,4.3-4.3,6.5-6.5c0.6-0.6,1.4-0.6,1.9,0
		c0.6,0.6,1.2,1.2,1.8,1.8C19.6,10.8,19.6,11.5,19,12.1z"/>
</g>
</svg>
