<?xml version="1.0" encoding="utf-8"?>
<!-- Generator: Adobe Illustrator 18.1.1, SVG Export Plug-In . SVG Version: 6.00 Build 0)  -->
<svg version="1.1" id="圖層_1" xmlns="http://www.w3.org/2000/svg" xmlns:xlink="http://www.w3.org/1999/xlink" x="0px" y="0px"
	 viewBox="0 0 30 30" enable-background="new 0 0 30 30" xml:space="preserve">
<g>
	<rect x="5.2" y="7" fill="#FFFFFF" width="15.5" height="15"/>
	<path fill="#666666" d="M13,26.4c-6.8,0-12.4-5.3-13-11.9C0,14.8,0,15.2,0,15.5c0,7.2,5.8,13,13,13s13-5.8,13-13
		c0-0.4,0-0.7-0.1-1.1C25.4,21.1,19.8,26.4,13,26.4z"/>
	<path fill="#F1C4C6" d="M13,1.5c-7.2,0-13,5.8-13,13c0,7.2,5.8,13,13,13s13-5.8,13-13C26,7.3,20.2,1.5,13,1.5z M18.2,16.4
		c-0.9,1.8-2.4,3.2-4.2,4.1c-0.7,0.3-1.4,0.4-2,0c-2.3-1.2-4-2.9-4.7-5.5c-0.2-0.8-0.3-1.7-0.1-2.5c0.3-1.3,1.4-2.2,2.7-2.4
		c1.2-0.2,2.4,0.5,3.1,1.6c0,0,0,0.1,0.1,0.1c0-0.1,0.1-0.1,0.1-0.2c0.7-1.2,1.9-1.8,3.3-1.5c1.3,0.2,2.3,1.3,2.5,2.6
		C19.1,14,18.8,15.2,18.2,16.4z"/>
</g>
</svg>
