<?xml version="1.0" encoding="utf-8"?>
<!-- Generator: Adobe Illustrator 18.1.1, SVG Export Plug-In . SVG Version: 6.00 Build 0)  -->
<svg version="1.1" id="圖層_1" xmlns="http://www.w3.org/2000/svg" xmlns:xlink="http://www.w3.org/1999/xlink" x="0px" y="0px"
	 viewBox="0 0 30 30" enable-background="new 0 0 30 30" xml:space="preserve">
<g>
	<rect x="5.6" y="6.5" fill="#FFFFFF" width="15.5" height="15"/>
	<path fill="#666666" d="M13,26.4c-6.8,0-12.4-5.3-13-11.9C0,14.8,0,15.2,0,15.5c0,7.2,5.8,13,13,13s13-5.8,13-13
		c0-0.4,0-0.7-0.1-1.1C25.4,21.1,19.8,26.4,13,26.4z"/>
	<path fill="#888988" d="M13,1.5c-7.2,0-13,5.8-13,13c0,7.2,5.8,13,13,13s13-5.8,13-13C26,7.3,20.2,1.5,13,1.5z M17.2,14.5
		c0,0,0,0.1,0,0.1c0,1.6,0,3.3,0,4.9c0,0.3-0.2,0.5-0.4,0.6c0,0-0.1,0-0.1,0c-0.7,0-1.4,0-2.1,0c0,0,0,0-0.1,0c0-1.1,0-2.2,0-3.3
		c-0.9,0-1.8,0-2.8,0c0,1.1,0,2.2,0,3.3c0,0-0.1,0-0.1,0c-0.7,0-1.3,0-2,0c-0.4,0-0.6-0.2-0.6-0.6c0-1.6,0-3.3,0-4.9
		c0,0,0-0.1,0-0.1c-0.6,0-1.2,0-1.8,0c0,0,0.1-0.1,0.1-0.1c1.4-1.5,2.8-3,4.2-4.5c0.4-0.4,0.7-0.8,1.1-1.2c0.1-0.1,0.2-0.2,0.3-0.2
		c0.1-0.1,0.3-0.1,0.4,0c0.1,0,0.1,0.1,0.2,0.1c1.8,1.9,3.5,3.8,5.3,5.7c0,0,0.1,0.1,0.1,0.1C18.3,14.5,17.7,14.5,17.2,14.5z"/>
</g>
</svg>
