<?xml version="1.0" encoding="utf-8"?>
<!-- Generator: Adobe Illustrator 18.1.1, SVG Export Plug-In . SVG Version: 6.00 Build 0)  -->
<svg version="1.1" id="圖層_1" xmlns="http://www.w3.org/2000/svg" xmlns:xlink="http://www.w3.org/1999/xlink" x="0px" y="0px"
	 viewBox="0 0 30 30" enable-background="new 0 0 30 30" xml:space="preserve">
<g>
	<rect x="6.6" y="7" fill="#FFFFFF" width="15.5" height="15"/>
	<path fill="#666666" d="M13,26.4c-6.8,0-12.4-5.3-13-11.9C0,14.8,0,15.2,0,15.5c0,7.2,5.8,13,13,13s13-5.8,13-13
		c0-0.4,0-0.7-0.1-1.1C25.4,21.1,19.8,26.4,13,26.4z"/>
	<path fill="#EFC01B" d="M13,1.5c-7.2,0-13,5.8-13,13c0,7.2,5.8,13,13,13c7.2,0,13-5.8,13-13C26,7.3,20.2,1.5,13,1.5z M16.2,20.1
		c0,0.2-0.2,0.3-0.4,0.3c-0.2-0.1-0.4-0.2-0.5-0.4c-0.6-0.7-1.1-1.4-1.7-2.1c-0.1-0.2-0.3-0.3-0.4-0.5c-0.1-0.1-0.1-0.1-0.2,0
		c-0.4,0.5-0.7,0.9-1.1,1.3c-0.3,0.4-0.6,0.8-1,1.2c-0.1,0.1-0.2,0.2-0.3,0.3c-0.1,0.1-0.2,0.1-0.3,0.1c-0.2,0-0.3-0.1-0.3-0.3
		c0-0.1,0-0.3,0-0.4c0-1.7,0-3.4,0-5.1c0-1.7,0-3.3,0-5c0-0.2,0-0.3,0-0.5c0-0.4,0.2-0.5,0.5-0.6c0.1,0,0.2,0,0.4,0c1.5,0,3,0,4.5,0
		c0.1,0,0.2,0,0.3,0c0.3,0,0.5,0.2,0.5,0.6c0,0.1,0,0.3,0,0.4c0,3.4,0,6.8,0,10.1C16.2,19.8,16.2,19.9,16.2,20.1z"/>
</g>
</svg>
