<?xml version="1.0" encoding="utf-8"?>
<!-- Generator: Adobe Illustrator 18.1.1, SVG Export Plug-In . SVG Version: 6.00 Build 0)  -->
<svg version="1.1" id="圖層_1" xmlns="http://www.w3.org/2000/svg" xmlns:xlink="http://www.w3.org/1999/xlink" x="0px" y="0px"
	 viewBox="0 0 30 30" enable-background="new 0 0 30 30" xml:space="preserve">
<g>
	<path fill="#9F97C5" d="M26.1,9.2c0-0.5-0.2-0.8-0.7-1c-0.6-0.2-1.3-0.5-1.9-0.7C23.1,7.5,23,7.3,23,7c-0.1-1.5-0.6-2.9-1.6-4.2
		C20,1.1,18.3,0.2,16,0.6c-0.5,0.1-1.1,0-1.6,0c-0.7-0.1-1.4-0.1-2.1,0.1C10.1,1.2,8.7,2.9,7.9,5C7.7,5.9,7.6,6.8,7.4,7.8
		C6.6,7.8,5.7,7.9,4.9,8c-0.8,0.1-1,0.3-1,1.1c0,6,0,12.1,0,18.1c0,0.8,0.2,1,1,1.1c5.2,0.4,10.4,0.8,15.6,1.2c0.3,0,0.6,0,0.9-0.2
		c1.4-0.7,2.8-1.5,4.1-2.2c0.4-0.2,0.6-0.5,0.6-0.9C26.1,20.5,26.1,14.9,26.1,9.2z M14.9,2.8c0.3-0.2,0.5-0.2,0.8,0
		C16.9,3.7,17.9,5.5,18,7c-1.8,0.1-3.6,0.3-5.4,0.4C12.7,5.5,13.3,3.9,14.9,2.8z M12.9,2.3c-0.8,0.9-1.4,2-1.7,3.2
		C11,6,10.9,6.6,10.9,7.2c0,0.3-0.1,0.3-0.4,0.4c-0.4,0-0.8,0-1.3,0.1C9,5.2,10.9,2.5,12.9,2.3z M19.7,6.8c-0.2-1.7-0.8-3.2-2-4.5
		c1.6,0,3.4,2.2,3.6,4.5C20.7,6.8,20.2,6.8,19.7,6.8z M24,26.1c-0.8,0.4-1.5,0.8-2.3,1.2c0-6.2,0-12.3,0-18.5
		c0.9,0.3,1.7,0.6,2.5,0.9c0.1,0,0.2,0.3,0.2,0.4c0,1.6,0,3.2,0,4.7c0,3.5,0,7,0,10.5C24.4,25.7,24.3,25.9,24,26.1z"/>
	<path fill="#FFFFFF" d="M12.6,14.4c0.8,0,1.6-0.1,2.4-0.1c0.7,0,1,0.3,1,0.9c0,1.6,0,3.2,0,4.8c0,0.6-0.4,0.9-1,0.9
		c-1.7-0.1-3.3-0.1-4.8-0.2c-0.6,0-0.8-0.3-0.9-0.9c0-1.5,0-3,0-4.4c0-0.5,0.3-0.8,0.8-0.8C11,14.5,11.8,14.5,12.6,14.4z"/>
</g>
<g>
	<path fill="#EC6856" d="M83,23.4c-6.7,0-13.3,0-20,0c0,0.1,0,0.2,0,0.2c0,2.2,0,4.4,0,6.6c0,0.9,0,1.8,0,2.7c0,0.6,0.3,1,0.9,1.1
		c0.1,0,0.3,0,0.4,0c4.1,0,8.2,0,12.3,0c1.7,0,3.4,0,5.1,0c0.6,0,1.3-0.4,1.2-1.2c0-3.1,0-6.1,0-9.2C83,23.6,83,23.5,83,23.4z
		 M76.7,27c-0.5,0.5-1,1-1.5,1.5c-1,1-2,2-3.1,3.1c-0.2,0.2-0.2,0.2-0.4,0c-0.8-0.8-1.6-1.6-2.3-2.4c-0.1-0.1-0.1-0.2,0-0.3
		c0.4-0.3,0.7-0.7,1.1-1c0.1-0.1,0.2-0.1,0.4,0c0.4,0.4,0.8,0.7,1.1,1.1c0.6-0.6,1.1-1.1,1.7-1.7c0.6-0.6,1.1-1.1,1.7-1.7
		c0.1-0.1,0.2-0.1,0.4,0c0.3,0.3,0.7,0.7,1,1C76.8,26.8,76.8,26.9,76.7,27z"/>
	<path fill="#EC6856" d="M82.8,22c-1.1-1.5-2.3-3-3.4-4.5c-0.2-0.2-0.4-0.3-0.6-0.4c-0.1,0-0.2,0-0.3,0c-3.6,0-7.2,0-10.8,0
		c-0.1,0-0.2,0-0.3,0c-0.3,0-0.5,0.1-0.7,0.4c-1.1,1.5-2.3,3-3.4,4.5c0,0.1-0.1,0.1-0.1,0.2c6.6,0,13.2,0,19.8,0
		C82.9,22.1,82.8,22.1,82.8,22z M77.9,20.3c-0.1,0-0.2,0-0.3,0c-1.5,0-3.1,0-4.6,0c-1.5,0-3,0-4.6,0c-0.1,0-0.1,0-0.2,0
		c-0.5,0-0.7-0.4-0.5-0.8c0.1-0.3,0.3-0.5,0.5-0.7c0.1-0.2,0.4-0.2,0.6-0.2c2.8,0,5.6,0,8.4,0c0.6,0,1.2,0.6,1.2,1.2
		C78.4,20.1,78.2,20.3,77.9,20.3z"/>
</g>
<g>
	<path fill="#36B7B2" d="M25.6,48.1C25.6,54,15,66.5,15,66.5S4.4,54,4.4,48.1S9.1,37.5,15,37.5S25.6,42.3,25.6,48.1z"/>
	<circle fill="#FFFFFF" cx="15" cy="48.1" r="5.1"/>
</g>
<polygon fill="#FCCC27" points="46,63.4 53,71.7 53,42 39,42 39,71.7 "/>
</svg>
