<?xml version="1.0" encoding="utf-8"?>
<!-- Generator: Adobe Illustrator 18.1.1, SVG Export Plug-In . SVG Version: 6.00 Build 0)  -->
<svg version="1.1" id="圖層_1" xmlns="http://www.w3.org/2000/svg" xmlns:xlink="http://www.w3.org/1999/xlink" x="0px" y="0px"
	 viewBox="0 0 30 30" enable-background="new 0 0 30 30" xml:space="preserve">
<g>
	<path fill="#EC6856" d="M28.5,12.1c-9,0-18,0-27,0c0,0.1,0,0.2,0,0.3c0,3,0,6,0,9c0,1.2,0,2.4,0,3.6c0,0.8,0.5,1.3,1.2,1.5
		c0.2,0,0.3,0,0.5,0c5.5,0,11.1,0,16.6,0c2.3,0,4.6,0,6.9,0c0.8,0,1.7-0.6,1.7-1.7c0-4.1,0-8.3,0-12.4
		C28.5,12.3,28.5,12.2,28.5,12.1z M20,16.9c-0.7,0.7-1.3,1.4-2,2.1c-1.4,1.4-2.8,2.7-4.1,4.1c-0.3,0.3-0.3,0.3-0.6,0
		c-1.1-1.1-2.1-2.1-3.1-3.2c-0.1-0.1-0.2-0.3,0-0.4c0.5-0.5,1-0.9,1.5-1.4c0.2-0.2,0.3-0.1,0.5,0c0.5,0.5,1,1,1.5,1.5
		c0.7-0.8,1.5-1.5,2.2-2.3c0.7-0.8,1.5-1.5,2.3-2.3c0.2-0.2,0.3-0.2,0.5,0c0.5,0.5,0.9,0.9,1.4,1.4C20.1,16.6,20.1,16.7,20,16.9z"/>
	<path fill="#EC6856" d="M28.2,10.2c-1.5-2-3.1-4.1-4.6-6.1c-0.2-0.3-0.5-0.4-0.9-0.5c-0.1,0-0.3,0-0.4,0c-4.9,0-9.7,0-14.6,0
		c-0.1,0-0.3,0-0.4,0c-0.4,0-0.7,0.2-0.9,0.5c-1.5,2-3.1,4.1-4.6,6.1c-0.1,0.1-0.1,0.1-0.2,0.2c8.9,0,17.8,0,26.7,0
		C28.3,10.3,28.2,10.2,28.2,10.2z M21.6,7.9c-0.1,0-0.2,0-0.3,0c-2.1,0-4.1,0-6.2,0c-2,0-4.1,0-6.1,0c-0.1,0-0.2,0-0.3,0
		c-0.6,0-0.9-0.5-0.7-1.1c0.2-0.3,0.4-0.7,0.7-1C8.7,5.7,9,5.6,9.3,5.6c3.8,0,7.6,0,11.4,0c0.8,0,1.6,0.8,1.6,1.6
		C22.2,7.6,22,7.9,21.6,7.9z"/>
</g>
</svg>
