<?xml version="1.0" encoding="utf-8"?>
<!-- Generator: Adobe Illustrator 18.1.1, SVG Export Plug-In . SVG Version: 6.00 Build 0)  -->
<svg version="1.1" id="圖層_1" xmlns="http://www.w3.org/2000/svg" xmlns:xlink="http://www.w3.org/1999/xlink" x="0px" y="0px"
	 viewBox="0 0 30 30" enable-background="new 0 0 30 30" xml:space="preserve">
<g>
	<rect x="5.3" y="7" fill="#FFFFFF" width="15.5" height="15"/>
	<path fill="#666666" d="M13,26.4c-6.8,0-12.4-5.3-13-11.9C0,14.8,0,15.2,0,15.5c0,7.2,5.8,13,13,13s13-5.8,13-13
		c0-0.4,0-0.7-0.1-1.1C25.4,21.1,19.9,26.4,13,26.4z"/>
	<g>
		<path fill="#EE837D" d="M14.7,14.5c-0.1-0.1-0.2-0.1-0.2,0c-0.3,0.4-0.7,0.7-1.1,1.1c-0.3,0.4-0.7,0.7-1,1.1
			c-0.2-0.2-0.5-0.5-0.7-0.7c-0.1-0.1-0.1-0.1-0.2,0c-0.2,0.2-0.5,0.4-0.7,0.7c-0.1,0.1-0.1,0.1,0,0.2c0.5,0.5,1,1,1.5,1.5
			c0.1,0.1,0.1,0.1,0.3,0c0.6-0.6,1.3-1.3,1.9-1.9c0.3-0.3,0.6-0.6,0.9-1c0.1-0.1,0.1-0.1,0-0.2C15.1,14.9,14.9,14.7,14.7,14.5z"/>
		<path fill="#EE837D" d="M15.6,10.1c-1.8,0-3.5,0-5.3,0c-0.1,0-0.3,0-0.4,0.1c-0.1,0.1-0.2,0.3-0.3,0.4c-0.1,0.3,0,0.5,0.3,0.5
			c0,0,0.1,0,0.1,0c1,0,1.9,0,2.9,0c1,0,1.9,0,2.9,0c0.1,0,0.1,0,0.2,0c0.2,0,0.3-0.2,0.3-0.3C16.4,10.4,16,10.1,15.6,10.1z"/>
		<path fill="#EE837D" d="M12.9,1.5C5.8,1.5,0,7.3,0,14.5c0,7.2,5.9,13,13.1,12.9c7.2,0,13-5.9,12.9-13.1C26,7.2,20.1,1.4,12.9,1.5z
			 M6.8,12.2c0.7-0.9,1.4-1.9,2.1-2.9c0.1-0.2,0.3-0.2,0.4-0.2c0.1,0,0.1,0,0.2,0c2.3,0,4.5,0,6.8,0c0.1,0,0.1,0,0.2,0
			c0.2,0,0.3,0.1,0.4,0.2c0.7,1,1.5,1.9,2.2,2.9c0,0,0,0.1,0.1,0.1c-4.2,0-8.3,0-12.5,0.1C6.8,12.3,6.8,12.3,6.8,12.2z M18.6,19.8
			c-1.1,0-2.2,0-3.2,0c-2.6,0-5.2,0-7.8,0c-0.1,0-0.2,0-0.2,0c-0.4-0.1-0.6-0.3-0.6-0.7c0-0.6,0-1.1,0-1.7c0-1.4,0-2.8,0-4.2
			c0,0,0-0.1,0-0.1c4.2,0,8.4,0,12.6-0.1c0,0.1,0,0.1,0,0.1c0,1.9,0,3.9,0,5.8C19.3,19.5,19,19.8,18.6,19.8z"/>
	</g>
</g>
</svg>
