<?xml version="1.0" encoding="utf-8"?>
<!-- Generator: Adobe Illustrator 18.1.1, SVG Export Plug-In . SVG Version: 6.00 Build 0)  -->
<svg version="1.1" id="圖層_1" xmlns="http://www.w3.org/2000/svg" xmlns:xlink="http://www.w3.org/1999/xlink" x="0px" y="0px"
	 viewBox="0 0 500 500" enable-background="new 0 0 500 500" xml:space="preserve">
<rect fill="#FFFFFF" width="500" height="500"/>
<g id="栝鍣_1">
	<g>
		<path fill="#E6E6E6" d="M31.3,0H0v31.3C0,14,14,0,31.3,0z"/>
		<path fill="#E6E6E6" d="M83.3,31.3C83.3,14,97.3,0,114.6,0H52.1C69.3,0,83.3,14,83.3,31.3z"/>
		<path fill="#E6E6E6" d="M166.7,31.3c0-17.3,14-31.2,31.3-31.3h-62.5C152.7,0,166.7,14,166.7,31.3z"/>
		<path fill="#E6E6E6" d="M250,31.3C250,14,264,0,281.3,0h-62.5C236,0,250,14,250,31.3z"/>
		<path fill="#E6E6E6" d="M333.3,31.3c0-17.3,14-31.2,31.3-31.3h-62.5C319.3,0,333.3,14,333.3,31.3z"/>
		<path fill="#E6E6E6" d="M416.7,31.3c0-17.3,14-31.2,31.3-31.3h-62.5C402.7,0,416.7,14,416.7,31.3z"/>
		<path fill="#E6E6E6" d="M41.7,72.9c0-17.3,14-31.2,31.3-31.3c-17.3,0-31.2-14-31.3-31.2c0,17.3-14,31.2-31.2,31.2
			C27.7,41.7,41.7,55.7,41.7,72.9z"/>
		<path fill="#E6E6E6" d="M125,72.9c0-17.3,14-31.2,31.3-31.3c-17.3,0-31.2-14-31.3-31.2c0,17.3-14,31.2-31.3,31.2
			C111,41.7,125,55.7,125,72.9z"/>
		<path fill="#E6E6E6" d="M208.3,72.9c0-17.3,14-31.2,31.3-31.3c-17.3,0-31.2-14-31.3-31.2c0,17.3-14,31.2-31.3,31.2
			C194.3,41.7,208.3,55.7,208.3,72.9z"/>
		<path fill="#E6E6E6" d="M291.7,72.9c0-17.3,14-31.2,31.3-31.3c-17.3,0-31.2-14-31.3-31.2c0,17.3-14,31.2-31.3,31.2
			C277.7,41.7,291.7,55.7,291.7,72.9z"/>
		<path fill="#E6E6E6" d="M375,72.9c0-17.3,14-31.2,31.3-31.3c-17.3,0-31.2-14-31.3-31.2c0,17.3-14,31.2-31.3,31.2
			C361,41.7,375,55.7,375,72.9z"/>
		<path fill="#E6E6E6" d="M458.3,72.9c0-17.3,14-31.2,31.3-31.3c-17.3,0-31.2-14-31.3-31.2c0,17.3-14,31.2-31.3,31.2
			C444.3,41.7,458.3,55.7,458.3,72.9z"/>
		<path fill="#E6E6E6" d="M500,31.3V0h-31.3C486,0,500,14,500,31.3z"/>
		<path fill="#E6E6E6" d="M31.3,83.3C14,83.3,0,69.3,0,52.1v62.5C0,97.3,14,83.3,31.3,83.3z"/>
		<path fill="#E6E6E6" d="M83.3,114.6c0-17.3,14-31.2,31.3-31.3c-17.3,0-31.2-14-31.3-31.2c0,17.3-14,31.2-31.2,31.2
			C69.3,83.3,83.3,97.3,83.3,114.6z"/>
		<path fill="#E6E6E6" d="M166.7,114.6c0-17.3,14-31.2,31.3-31.3c-17.3,0-31.2-14-31.3-31.2c0,17.3-14,31.2-31.3,31.2
			C152.7,83.3,166.7,97.3,166.7,114.6z"/>
		<path fill="#E6E6E6" d="M250,114.6c0-17.3,14-31.2,31.3-31.3c-17.3,0-31.2-14-31.3-31.2c0,17.3-14,31.2-31.3,31.2
			C236,83.3,250,97.3,250,114.6z"/>
		<path fill="#E6E6E6" d="M333.3,114.6c0-17.3,14-31.2,31.3-31.3c-17.3,0-31.2-14-31.3-31.2c0,17.3-14,31.2-31.3,31.2
			C319.3,83.3,333.3,97.3,333.3,114.6z"/>
		<path fill="#E6E6E6" d="M416.7,114.6c0-17.3,14-31.2,31.3-31.3c-17.3,0-31.2-14-31.3-31.2c0,17.3-14,31.2-31.3,31.2
			C402.7,83.3,416.7,97.3,416.7,114.6z"/>
		<path fill="#E6E6E6" d="M41.7,156.3c0-17.3,14-31.2,31.3-31.3c-17.3,0-31.2-14-31.3-31.3c0,17.3-14,31.2-31.2,31.3
			C27.7,125,41.7,139,41.7,156.3z"/>
		<path fill="#E6E6E6" d="M125,93.8c0,17.3-14,31.2-31.3,31.3c17.3,0,31.2,14,31.3,31.3c0-17.3,14-31.2,31.3-31.3
			C139,125,125,111,125,93.8z"/>
		<path fill="#E6E6E6" d="M208.3,93.8c0,17.3-14,31.2-31.3,31.3c17.3,0,31.2,14,31.3,31.3c0-17.3,14-31.2,31.3-31.3
			C222.3,125,208.3,111,208.3,93.8z"/>
		<path fill="#E6E6E6" d="M291.7,93.8c0,17.3-14,31.2-31.3,31.3c17.3,0,31.2,14,31.3,31.3c0-17.3,14-31.2,31.3-31.3
			C305.7,125,291.7,111,291.7,93.8z"/>
		<path fill="#E6E6E6" d="M375,93.8c0,17.3-14,31.2-31.3,31.3c17.3,0,31.2,14,31.3,31.3c0-17.3,14-31.2,31.3-31.3
			C389,125,375,111,375,93.8z"/>
		<path fill="#E6E6E6" d="M458.3,93.8c0,17.3-14,31.2-31.3,31.3c17.3,0,31.2,14,31.3,31.3c0-17.3,14-31.2,31.3-31.3
			C472.3,125,458.3,111,458.3,93.8z"/>
		<path fill="#E6E6E6" d="M468.8,83.3c17.3,0,31.2,14,31.3,31.3V52.1C500,69.3,486,83.3,468.8,83.3z"/>
		<path fill="#E6E6E6" d="M31.3,166.7C14,166.7,0,152.7,0,135.4v62.5C0,180.7,14,166.7,31.3,166.7z"/>
		<path fill="#E6E6E6" d="M83.3,135.4c0,17.3-14,31.2-31.2,31.3c17.3,0,31.2,14,31.2,31.3c0-17.3,14-31.2,31.3-31.3
			C97.3,166.7,83.3,152.7,83.3,135.4z"/>
		<path fill="#E6E6E6" d="M166.7,135.4c0,17.3-14,31.2-31.3,31.3c17.3,0,31.2,14,31.3,31.3c0-17.3,14-31.2,31.3-31.3
			C180.7,166.7,166.7,152.7,166.7,135.4z"/>
		<path fill="#E6E6E6" d="M250,135.4c0,17.3-14,31.2-31.3,31.3c17.3,0,31.2,14,31.3,31.3c0-17.3,14-31.2,31.3-31.3
			C264,166.7,250,152.7,250,135.4z"/>
		<path fill="#E6E6E6" d="M333.3,135.4c0,17.3-14,31.2-31.3,31.3c17.3,0,31.2,14,31.3,31.3c0-17.3,14-31.2,31.3-31.3
			C347.3,166.7,333.3,152.7,333.3,135.4z"/>
		<path fill="#E6E6E6" d="M416.7,135.4c0,17.3-14,31.2-31.3,31.3c17.3,0,31.2,14,31.3,31.3c0-17.3,14-31.2,31.3-31.3
			C430.7,166.7,416.7,152.7,416.7,135.4z"/>
		<path fill="#E6E6E6" d="M41.7,239.6c0-17.3,14-31.2,31.3-31.3c-17.3,0-31.2-14-31.3-31.3c0,17.3-14,31.2-31.2,31.3
			C27.7,208.3,41.7,222.3,41.7,239.6z"/>
		<path fill="#E6E6E6" d="M156.3,208.3c-17.3,0-31.2-14-31.3-31.3c0,17.3-14,31.2-31.3,31.3c17.3,0,31.2,14,31.3,31.3
			C125,222.3,139,208.3,156.3,208.3z"/>
		<path fill="#E6E6E6" d="M208.3,239.6c0-17.3,14-31.2,31.3-31.3c-17.3,0-31.2-14-31.3-31.3c0,17.3-14,31.2-31.3,31.3
			C194.3,208.3,208.3,222.3,208.3,239.6z"/>
		<path fill="#E6E6E6" d="M291.7,239.6c0-17.3,14-31.2,31.3-31.3c-17.3,0-31.2-14-31.3-31.3c0,17.3-14,31.2-31.3,31.3
			C277.7,208.3,291.7,222.3,291.7,239.6z"/>
		<path fill="#E6E6E6" d="M375,239.6c0-17.3,14-31.2,31.3-31.3c-17.3,0-31.2-14-31.3-31.3c0,17.3-14,31.2-31.3,31.3
			C361,208.3,375,222.3,375,239.6z"/>
		<path fill="#E6E6E6" d="M458.3,177.1c0,17.3-14,31.2-31.3,31.3c17.3,0,31.2,14,31.3,31.3c0-17.3,14-31.2,31.3-31.3
			C472.3,208.3,458.3,194.3,458.3,177.1z"/>
		<path fill="#E6E6E6" d="M468.8,166.7c17.3,0,31.2,14,31.3,31.3v-62.5C500,152.7,486,166.7,468.8,166.7z"/>
		<path fill="#E6E6E6" d="M31.3,250C14,250,0,236,0,218.8v62.5C0,264,14,250,31.3,250z"/>
		<path fill="#E6E6E6" d="M83.3,281.3c0-17.3,14-31.2,31.3-31.3c-17.3,0-31.2-14-31.3-31.3c0,17.3-14,31.2-31.2,31.3
			C69.3,250,83.3,264,83.3,281.3z"/>
		<path fill="#E6E6E6" d="M166.7,281.3c0-17.3,14-31.2,31.3-31.3c-17.3,0-31.2-14-31.3-31.3c0,17.3-14,31.2-31.3,31.3
			C152.7,250,166.7,264,166.7,281.3z"/>
		<path fill="#E6E6E6" d="M250,281.3c0-17.3,14-31.2,31.3-31.3c-17.3,0-31.2-14-31.3-31.3c0,17.3-14,31.2-31.3,31.3
			C236,250,250,264,250,281.3z"/>
		<path fill="#E6E6E6" d="M333.3,281.3c0-17.3,14-31.2,31.3-31.3c-17.3,0-31.2-14-31.3-31.3c0,17.3-14,31.2-31.3,31.3
			C319.3,250,333.3,264,333.3,281.3z"/>
		<path fill="#E6E6E6" d="M416.7,281.3c0-17.3,14-31.2,31.3-31.3c-17.3,0-31.2-14-31.3-31.3c0,17.3-14,31.2-31.3,31.3
			C402.7,250,416.7,264,416.7,281.3z"/>
		<path fill="#E6E6E6" d="M41.7,322.9c0-17.3,14-31.2,31.3-31.3c-17.3,0-31.2-14-31.3-31.3c0,17.3-14,31.2-31.2,31.3
			C27.7,291.7,41.7,305.7,41.7,322.9z"/>
		<path fill="#E6E6E6" d="M125,322.9c0-17.3,14-31.2,31.3-31.3c-17.3,0-31.2-14-31.3-31.3c0,17.3-14,31.2-31.3,31.3
			C111,291.7,125,305.7,125,322.9z"/>
		<path fill="#E6E6E6" d="M208.3,322.9c0-17.3,14-31.2,31.3-31.3c-17.3,0-31.2-14-31.3-31.3c0,17.3-14,31.2-31.3,31.3
			C194.3,291.7,208.3,305.7,208.3,322.9z"/>
		<path fill="#E6E6E6" d="M291.7,322.9c0-17.3,14-31.2,31.3-31.3c-17.3,0-31.2-14-31.3-31.3c0,17.3-14,31.2-31.3,31.3
			C277.7,291.7,291.7,305.7,291.7,322.9z"/>
		<path fill="#E6E6E6" d="M375,322.9c0-17.3,14-31.2,31.3-31.3c-17.3,0-31.2-14-31.3-31.3c0,17.3-14,31.2-31.3,31.3
			C361,291.7,375,305.7,375,322.9z"/>
		<path fill="#E6E6E6" d="M458.3,260.4c0,17.3-14,31.2-31.3,31.3c17.3,0,31.2,14,31.3,31.3c0-17.3,14-31.2,31.3-31.3
			C472.3,291.7,458.3,277.7,458.3,260.4z"/>
		<path fill="#E6E6E6" d="M468.8,250c17.3,0,31.2,14,31.3,31.3v-62.5C500,236,486,250,468.8,250z"/>
		<path fill="#E6E6E6" d="M31.3,333.3C14,333.3,0,319.3,0,302.1v62.5C0,347.3,14,333.3,31.3,333.3z"/>
		<path fill="#E6E6E6" d="M83.3,364.6c0-17.3,14-31.2,31.3-31.3c-17.3,0-31.2-14-31.3-31.3c0,17.3-14,31.2-31.2,31.3
			C69.3,333.3,83.3,347.3,83.3,364.6z"/>
		<path fill="#E6E6E6" d="M166.7,364.6c0-17.3,14-31.2,31.3-31.3c-17.3,0-31.2-14-31.3-31.3c0,17.3-14,31.2-31.3,31.3
			C152.7,333.3,166.7,347.3,166.7,364.6z"/>
		<path fill="#E6E6E6" d="M250,364.6c0-17.3,14-31.2,31.3-31.3c-17.3,0-31.2-14-31.3-31.3c0,17.3-14,31.2-31.3,31.3
			C236,333.3,250,347.3,250,364.6z"/>
		<path fill="#E6E6E6" d="M333.3,364.6c0-17.3,14-31.2,31.3-31.3c-17.3,0-31.2-14-31.3-31.3c0,17.3-14,31.2-31.3,31.3
			C319.3,333.3,333.3,347.3,333.3,364.6z"/>
		<path fill="#E6E6E6" d="M416.7,364.6c0-17.3,14-31.2,31.3-31.3c-17.3,0-31.2-14-31.3-31.3c0,17.3-14,31.2-31.3,31.3
			C402.7,333.3,416.7,347.3,416.7,364.6z"/>
		<path fill="#E6E6E6" d="M41.7,406.3c0-17.3,14-31.2,31.3-31.3c-17.3,0-31.2-14-31.3-31.3c0,17.3-14,31.2-31.2,31.3
			C27.7,375,41.7,389,41.7,406.3z"/>
		<path fill="#E6E6E6" d="M125,406.3c0-17.3,14-31.2,31.3-31.3c-17.3,0-31.2-14-31.3-31.3c0,17.3-14,31.2-31.3,31.3
			C111,375,125,389,125,406.3z"/>
		<path fill="#E6E6E6" d="M208.3,406.3c0-17.3,14-31.2,31.3-31.3c-17.3,0-31.2-14-31.3-31.3c0,17.3-14,31.2-31.3,31.3
			C194.3,375,208.3,389,208.3,406.3z"/>
		<path fill="#E6E6E6" d="M291.7,406.3c0-17.3,14-31.2,31.3-31.3c-17.3,0-31.2-14-31.3-31.3c0,17.3-14,31.2-31.3,31.3
			C277.7,375,291.7,389,291.7,406.3z"/>
		<path fill="#E6E6E6" d="M375,406.3c0-17.3,14-31.2,31.3-31.3c-17.3,0-31.2-14-31.3-31.3c0,17.3-14,31.2-31.3,31.3
			C361,375,375,389,375,406.3z"/>
		<path fill="#E6E6E6" d="M458.3,343.8c0,17.3-14,31.2-31.3,31.3c17.3,0,31.2,14,31.3,31.3c0-17.3,14-31.2,31.3-31.3
			C472.3,375,458.3,361,458.3,343.8z"/>
		<path fill="#E6E6E6" d="M468.8,333.3c17.3,0,31.2,14,31.3,31.3v-62.5C500,319.3,486,333.3,468.8,333.3z"/>
		<path fill="#E6E6E6" d="M31.3,416.7C14,416.7,0,402.7,0,385.4v62.5C0,430.7,14,416.7,31.3,416.7z"/>
		<path fill="#E6E6E6" d="M83.3,385.4c0,17.3-14,31.2-31.2,31.3c17.3,0,31.2,14,31.2,31.3c0-17.3,14-31.2,31.3-31.3
			C97.3,416.7,83.3,402.7,83.3,385.4z"/>
		<path fill="#E6E6E6" d="M166.7,385.4c0,17.3-14,31.2-31.3,31.3c17.3,0,31.2,14,31.3,31.3c0-17.3,14-31.2,31.3-31.3
			C180.7,416.7,166.7,402.7,166.7,385.4z"/>
		<path fill="#E6E6E6" d="M250,385.4c0,17.3-14,31.2-31.3,31.3c17.3,0,31.2,14,31.3,31.3c0-17.3,14-31.2,31.3-31.3
			C264,416.7,250,402.7,250,385.4z"/>
		<path fill="#E6E6E6" d="M333.3,385.4c0,17.3-14,31.2-31.3,31.3c17.3,0,31.2,14,31.3,31.3c0-17.3,14-31.2,31.3-31.3
			C347.3,416.7,333.3,402.7,333.3,385.4z"/>
		<path fill="#E6E6E6" d="M416.7,385.4c0,17.3-14,31.2-31.3,31.3c17.3,0,31.2,14,31.3,31.3c0-17.3,14-31.2,31.3-31.3
			C430.7,416.7,416.7,402.7,416.7,385.4z"/>
		<path fill="#E6E6E6" d="M41.7,427.1c0,17.3-14,31.2-31.2,31.3c17.3,0,31.2,14,31.2,31.3c0-17.3,14-31.2,31.3-31.3
			C55.7,458.3,41.7,444.3,41.7,427.1z"/>
		<path fill="#E6E6E6" d="M125,427.1c0,17.3-14,31.2-31.3,31.3c17.3,0,31.2,14,31.3,31.3c0-17.3,14-31.2,31.3-31.3
			C139,458.3,125,444.3,125,427.1z"/>
		<path fill="#E6E6E6" d="M208.3,427.1c0,17.3-14,31.2-31.3,31.3c17.3,0,31.2,14,31.3,31.3c0-17.3,14-31.2,31.3-31.3
			C222.3,458.3,208.3,444.3,208.3,427.1z"/>
		<path fill="#E6E6E6" d="M291.7,427.1c0,17.3-14,31.2-31.3,31.3c17.3,0,31.2,14,31.3,31.3c0-17.3,14-31.2,31.3-31.3
			C305.7,458.3,291.7,444.3,291.7,427.1z"/>
		<path fill="#E6E6E6" d="M375,427.1c0,17.3-14,31.2-31.3,31.3c17.3,0,31.2,14,31.3,31.3c0-17.3,14-31.2,31.3-31.3
			C389,458.3,375,444.3,375,427.1z"/>
		<path fill="#E6E6E6" d="M458.3,427.1c0,17.3-14,31.2-31.3,31.3c17.3,0,31.2,14,31.3,31.3c0-17.3,14-31.2,31.3-31.3
			C472.3,458.3,458.3,444.3,458.3,427.1z"/>
		<path fill="#E6E6E6" d="M468.8,416.7c17.3,0,31.2,14,31.3,31.3v-62.5C500,402.7,486,416.7,468.8,416.7z"/>
		<path fill="#E6E6E6" d="M0,468.8V500h31.3C14,500,0,486,0,468.8z"/>
		<path fill="#E6E6E6" d="M83.3,468.8c0,17.3-14,31.2-31.2,31.3h62.5C97.3,500,83.3,486,83.3,468.8z"/>
		<path fill="#E6E6E6" d="M166.7,468.8c0,17.3-14,31.2-31.3,31.3h62.5C180.7,500,166.7,486,166.7,468.8z"/>
		<path fill="#E6E6E6" d="M250,468.8c0,17.3-14,31.2-31.3,31.3h62.5C264,500,250,486,250,468.8z"/>
		<path fill="#E6E6E6" d="M333.3,468.8c0,17.3-14,31.2-31.3,31.3h62.5C347.3,500,333.3,486,333.3,468.8z"/>
		<path fill="#E6E6E6" d="M416.7,468.8c0,17.3-14,31.2-31.3,31.3h62.5C430.7,500,416.7,486,416.7,468.8z"/>
		<path fill="#E6E6E6" d="M500,468.8c0,17.3-14,31.2-31.3,31.3H500V468.8z"/>
	</g>
</g>
<g id="栝鍣_2">
</g>
</svg>
